<mxfile host="app.diagrams.net" modified="2022-05-04T16:55:35.036Z" agent="5.0 (X11; Linux x86_64) AppleWebKit/537.36 (KHTML, like Gecko) Chrome/99.0.4844.51 Safari/537.36" etag="fTrAP_bAkzfk0tUklMkK" version="17.5.0" type="github">
  <diagram id="g37PVrqC7UkkJd-V3b6W" name="Page-1">
    <mxGraphModel dx="1422" dy="1802" grid="1" gridSize="10" guides="1" tooltips="1" connect="1" arrows="1" fold="1" page="1" pageScale="1" pageWidth="850" pageHeight="1100" math="0" shadow="0">
      <root>
        <mxCell id="0" />
        <mxCell id="1" parent="0" />
        <mxCell id="jZSy8k9Uf3yvj8wu4J5K-124" value="C.F" style="text;html=1;strokeColor=none;fillColor=none;align=center;verticalAlign=middle;whiteSpace=wrap;rounded=0;direction=west;" parent="1" vertex="1">
          <mxGeometry x="960" y="105" width="60" height="30" as="geometry" />
        </mxCell>
        <mxCell id="jZSy8k9Uf3yvj8wu4J5K-128" value="" style="endArrow=oval;html=1;rounded=0;exitX=0;exitY=0.25;exitDx=0;exitDy=0;endFill=1;" parent="1" target="jZSy8k9Uf3yvj8wu4J5K-124" edge="1">
          <mxGeometry width="50" height="50" relative="1" as="geometry">
            <mxPoint x="915" y="120.00000000000023" as="sourcePoint" />
            <mxPoint x="955" y="120.00000000000023" as="targetPoint" />
          </mxGeometry>
        </mxCell>
        <mxCell id="MBOUWFR5yHpP2ibVQKA5-11" style="edgeStyle=orthogonalEdgeStyle;rounded=0;orthogonalLoop=1;jettySize=auto;html=1;exitX=0.5;exitY=1;exitDx=0;exitDy=0;entryX=0.5;entryY=0;entryDx=0;entryDy=0;endArrow=none;endFill=0;" parent="1" source="jZSy8k9Uf3yvj8wu4J5K-13" target="MBOUWFR5yHpP2ibVQKA5-10" edge="1">
          <mxGeometry relative="1" as="geometry" />
        </mxCell>
        <mxCell id="jZSy8k9Uf3yvj8wu4J5K-13" value="ricevuta" style="whiteSpace=wrap;html=1;align=center;" parent="1" vertex="1">
          <mxGeometry x="2110" y="480" width="160" height="80" as="geometry" />
        </mxCell>
        <mxCell id="MBOUWFR5yHpP2ibVQKA5-47" style="edgeStyle=orthogonalEdgeStyle;rounded=0;orthogonalLoop=1;jettySize=auto;html=1;exitX=0.5;exitY=1;exitDx=0;exitDy=0;endArrow=none;endFill=0;entryX=0.5;entryY=1;entryDx=0;entryDy=0;jumpStyle=arc;jumpSize=25;" parent="1" source="jZSy8k9Uf3yvj8wu4J5K-14" target="jZSy8k9Uf3yvj8wu4J5K-194" edge="1">
          <mxGeometry relative="1" as="geometry">
            <mxPoint x="1240" y="1010" as="targetPoint" />
            <Array as="points">
              <mxPoint x="2600" y="1370" />
              <mxPoint x="1240" y="1370" />
            </Array>
          </mxGeometry>
        </mxCell>
        <mxCell id="jZSy8k9Uf3yvj8wu4J5K-14" value="transazione uscente" style="whiteSpace=wrap;html=1;align=center;" parent="1" vertex="1">
          <mxGeometry x="2520" y="250" width="160" height="80" as="geometry" />
        </mxCell>
        <mxCell id="jZSy8k9Uf3yvj8wu4J5K-21" value="" style="endArrow=oval;html=1;rounded=0;exitX=0;exitY=0.25;exitDx=0;exitDy=0;endFill=0;" parent="1" edge="1">
          <mxGeometry width="50" height="50" relative="1" as="geometry">
            <mxPoint x="2520" y="265" as="sourcePoint" />
            <mxPoint x="2480" y="265" as="targetPoint" />
          </mxGeometry>
        </mxCell>
        <mxCell id="jZSy8k9Uf3yvj8wu4J5K-22" value="" style="endArrow=oval;html=1;rounded=0;exitX=0;exitY=0.25;exitDx=0;exitDy=0;endFill=0;" parent="1" edge="1">
          <mxGeometry width="50" height="50" relative="1" as="geometry">
            <mxPoint x="2520" y="324.17" as="sourcePoint" />
            <mxPoint x="2480" y="324.17" as="targetPoint" />
          </mxGeometry>
        </mxCell>
        <mxCell id="jZSy8k9Uf3yvj8wu4J5K-25" value="timestamp" style="text;html=1;strokeColor=none;fillColor=none;align=center;verticalAlign=middle;whiteSpace=wrap;rounded=0;" parent="1" vertex="1">
          <mxGeometry x="2210" y="415" width="60" height="30" as="geometry" />
        </mxCell>
        <mxCell id="jZSy8k9Uf3yvj8wu4J5K-54" value="prodotti" style="whiteSpace=wrap;html=1;align=center;" parent="1" vertex="1">
          <mxGeometry x="1630" y="932.5" width="160" height="80" as="geometry" />
        </mxCell>
        <mxCell id="jZSy8k9Uf3yvj8wu4J5K-58" value="deperibili" style="whiteSpace=wrap;html=1;align=center;" parent="1" vertex="1">
          <mxGeometry x="1630" y="1187.5" width="160" height="80" as="geometry" />
        </mxCell>
        <mxCell id="jZSy8k9Uf3yvj8wu4J5K-65" value="data di scadenza" style="text;html=1;strokeColor=none;fillColor=none;align=center;verticalAlign=middle;whiteSpace=wrap;rounded=0;" parent="1" vertex="1">
          <mxGeometry x="1480" y="1172.5" width="100" height="30" as="geometry" />
        </mxCell>
        <mxCell id="jZSy8k9Uf3yvj8wu4J5K-69" value="" style="endArrow=oval;html=1;rounded=0;exitX=0;exitY=0.25;exitDx=0;exitDy=0;endFill=0;" parent="1" edge="1">
          <mxGeometry width="50" height="50" relative="1" as="geometry">
            <mxPoint x="1630" y="1192.5" as="sourcePoint" />
            <mxPoint x="1590" y="1192.5" as="targetPoint" />
          </mxGeometry>
        </mxCell>
        <mxCell id="jZSy8k9Uf3yvj8wu4J5K-71" value="" style="endArrow=oval;html=1;rounded=0;exitX=0;exitY=0.25;exitDx=0;exitDy=0;endFill=0;" parent="1" edge="1">
          <mxGeometry width="50" height="50" relative="1" as="geometry">
            <mxPoint x="1630" y="972.26" as="sourcePoint" />
            <mxPoint x="1590" y="972.26" as="targetPoint" />
          </mxGeometry>
        </mxCell>
        <mxCell id="jZSy8k9Uf3yvj8wu4J5K-72" value="" style="endArrow=oval;html=1;rounded=0;exitX=0;exitY=0.25;exitDx=0;exitDy=0;endFill=0;" parent="1" edge="1">
          <mxGeometry width="50" height="50" relative="1" as="geometry">
            <mxPoint x="1630" y="1002.5" as="sourcePoint" />
            <mxPoint x="1590" y="1002.5" as="targetPoint" />
          </mxGeometry>
        </mxCell>
        <mxCell id="jZSy8k9Uf3yvj8wu4J5K-73" value="codice prodotto" style="text;html=1;strokeColor=none;fillColor=none;align=center;verticalAlign=middle;whiteSpace=wrap;rounded=0;" parent="1" vertex="1">
          <mxGeometry x="1500" y="925" width="90" height="20" as="geometry" />
        </mxCell>
        <mxCell id="jZSy8k9Uf3yvj8wu4J5K-74" value="quantita&#39;" style="text;html=1;strokeColor=none;fillColor=none;align=center;verticalAlign=middle;whiteSpace=wrap;rounded=0;" parent="1" vertex="1">
          <mxGeometry x="1880" y="912.5" width="60" height="30" as="geometry" />
        </mxCell>
        <mxCell id="jZSy8k9Uf3yvj8wu4J5K-75" value="nome" style="text;html=1;strokeColor=none;fillColor=none;align=center;verticalAlign=middle;whiteSpace=wrap;rounded=0;" parent="1" vertex="1">
          <mxGeometry x="1540" y="952.5" width="60" height="30" as="geometry" />
        </mxCell>
        <mxCell id="jZSy8k9Uf3yvj8wu4J5K-76" value="prezzo unitario" style="text;html=1;strokeColor=none;fillColor=none;align=center;verticalAlign=middle;whiteSpace=wrap;rounded=0;" parent="1" vertex="1">
          <mxGeometry x="1530" y="992.5" width="60" height="30" as="geometry" />
        </mxCell>
        <mxCell id="4f7llSYf8M2964etwW2G-53" style="edgeStyle=orthogonalEdgeStyle;rounded=0;jumpStyle=none;jumpSize=25;orthogonalLoop=1;jettySize=auto;html=1;exitX=0.5;exitY=1;exitDx=0;exitDy=0;entryX=0.5;entryY=0;entryDx=0;entryDy=0;startArrow=none;startFill=0;endArrow=none;endFill=0;" parent="1" source="jZSy8k9Uf3yvj8wu4J5K-83" target="4f7llSYf8M2964etwW2G-50" edge="1">
          <mxGeometry relative="1" as="geometry" />
        </mxCell>
        <mxCell id="4f7llSYf8M2964etwW2G-70" style="edgeStyle=orthogonalEdgeStyle;rounded=0;jumpStyle=none;jumpSize=25;orthogonalLoop=1;jettySize=auto;html=1;exitX=1;exitY=0.75;exitDx=0;exitDy=0;entryX=0.5;entryY=0;entryDx=0;entryDy=0;startArrow=none;startFill=0;endArrow=none;endFill=0;" parent="1" source="jZSy8k9Uf3yvj8wu4J5K-83" target="4f7llSYf8M2964etwW2G-51" edge="1">
          <mxGeometry relative="1" as="geometry" />
        </mxCell>
        <mxCell id="jZSy8k9Uf3yvj8wu4J5K-83" value="dipendenti" style="whiteSpace=wrap;html=1;align=center;" parent="1" vertex="1">
          <mxGeometry x="760" y="80" width="160" height="80" as="geometry" />
        </mxCell>
        <mxCell id="jZSy8k9Uf3yvj8wu4J5K-216" style="edgeStyle=elbowEdgeStyle;rounded=0;orthogonalLoop=1;jettySize=auto;html=1;exitX=0.5;exitY=1;exitDx=0;exitDy=0;entryX=0.5;entryY=0;entryDx=0;entryDy=0;shadow=0;labelBackgroundColor=#000000;endArrow=none;endFill=0;" parent="1" source="jZSy8k9Uf3yvj8wu4J5K-84" target="jZSy8k9Uf3yvj8wu4J5K-158" edge="1">
          <mxGeometry relative="1" as="geometry" />
        </mxCell>
        <mxCell id="jZSy8k9Uf3yvj8wu4J5K-84" value="farmacisti" style="whiteSpace=wrap;html=1;align=center;" parent="1" vertex="1">
          <mxGeometry x="480" y="537.5" width="160" height="80" as="geometry" />
        </mxCell>
        <mxCell id="jZSy8k9Uf3yvj8wu4J5K-195" style="edgeStyle=elbowEdgeStyle;rounded=0;orthogonalLoop=1;jettySize=auto;html=1;exitX=0.5;exitY=1;exitDx=0;exitDy=0;entryX=0.5;entryY=0;entryDx=0;entryDy=0;shadow=0;labelBackgroundColor=#000000;endArrow=none;endFill=0;" parent="1" target="jZSy8k9Uf3yvj8wu4J5K-194" edge="1">
          <mxGeometry relative="1" as="geometry">
            <mxPoint x="1240" y="360" as="sourcePoint" />
          </mxGeometry>
        </mxCell>
        <mxCell id="jZSy8k9Uf3yvj8wu4J5K-85" value="impiegati" style="whiteSpace=wrap;html=1;align=center;" parent="1" vertex="1">
          <mxGeometry x="1160" y="280" width="160" height="80" as="geometry" />
        </mxCell>
        <mxCell id="jZSy8k9Uf3yvj8wu4J5K-113" value="" style="endArrow=oval;html=1;rounded=0;exitX=0;exitY=0.25;exitDx=0;exitDy=0;endFill=0;" parent="1" edge="1">
          <mxGeometry width="50" height="50" relative="1" as="geometry">
            <mxPoint x="760" y="115.00000000000023" as="sourcePoint" />
            <mxPoint x="720" y="115.00000000000023" as="targetPoint" />
          </mxGeometry>
        </mxCell>
        <mxCell id="jZSy8k9Uf3yvj8wu4J5K-114" value="" style="endArrow=oval;html=1;rounded=0;exitX=0;exitY=0.25;exitDx=0;exitDy=0;endFill=0;" parent="1" edge="1">
          <mxGeometry width="50" height="50" relative="1" as="geometry">
            <mxPoint x="760" y="135" as="sourcePoint" />
            <mxPoint x="720" y="135" as="targetPoint" />
          </mxGeometry>
        </mxCell>
        <mxCell id="jZSy8k9Uf3yvj8wu4J5K-115" value="" style="endArrow=oval;html=1;rounded=0;exitX=0;exitY=0.25;exitDx=0;exitDy=0;endFill=0;" parent="1" edge="1">
          <mxGeometry width="50" height="50" relative="1" as="geometry">
            <mxPoint x="760" y="155" as="sourcePoint" />
            <mxPoint x="720" y="155" as="targetPoint" />
          </mxGeometry>
        </mxCell>
        <mxCell id="jZSy8k9Uf3yvj8wu4J5K-116" value="nome" style="text;html=1;strokeColor=none;fillColor=none;align=center;verticalAlign=middle;whiteSpace=wrap;rounded=0;" parent="1" vertex="1">
          <mxGeometry x="660" y="75" width="60" height="30" as="geometry" />
        </mxCell>
        <mxCell id="jZSy8k9Uf3yvj8wu4J5K-117" value="cognome" style="text;html=1;strokeColor=none;fillColor=none;align=center;verticalAlign=middle;whiteSpace=wrap;rounded=0;" parent="1" vertex="1">
          <mxGeometry x="650" y="95" width="60" height="30" as="geometry" />
        </mxCell>
        <mxCell id="jZSy8k9Uf3yvj8wu4J5K-118" value="data di nascita" style="text;html=1;strokeColor=none;fillColor=none;align=center;verticalAlign=middle;whiteSpace=wrap;rounded=0;" parent="1" vertex="1">
          <mxGeometry x="630" y="115" width="80" height="30" as="geometry" />
        </mxCell>
        <mxCell id="jZSy8k9Uf3yvj8wu4J5K-119" value="mail" style="text;html=1;strokeColor=none;fillColor=none;align=center;verticalAlign=middle;whiteSpace=wrap;rounded=0;" parent="1" vertex="1">
          <mxGeometry x="670" y="137.5" width="60" height="30" as="geometry" />
        </mxCell>
        <mxCell id="jZSy8k9Uf3yvj8wu4J5K-120" value="" style="endArrow=oval;html=1;rounded=0;exitX=0;exitY=0.25;exitDx=0;exitDy=0;endFill=0;" parent="1" edge="1">
          <mxGeometry width="50" height="50" relative="1" as="geometry">
            <mxPoint x="760" y="95.00000000000023" as="sourcePoint" />
            <mxPoint x="720" y="95.00000000000023" as="targetPoint" />
          </mxGeometry>
        </mxCell>
        <mxCell id="4f7llSYf8M2964etwW2G-41" style="edgeStyle=orthogonalEdgeStyle;rounded=0;jumpStyle=none;jumpSize=25;orthogonalLoop=1;jettySize=auto;html=1;exitX=1;exitY=0.75;exitDx=0;exitDy=0;entryX=0;entryY=0.5;entryDx=0;entryDy=0;startArrow=none;startFill=0;endArrow=none;endFill=0;" parent="1" source="jZSy8k9Uf3yvj8wu4J5K-133" target="4f7llSYf8M2964etwW2G-38" edge="1">
          <mxGeometry relative="1" as="geometry" />
        </mxCell>
        <mxCell id="jZSy8k9Uf3yvj8wu4J5K-133" value="sede" style="whiteSpace=wrap;html=1;align=center;" parent="1" vertex="1">
          <mxGeometry x="1630" y="280" width="160" height="80" as="geometry" />
        </mxCell>
        <mxCell id="jZSy8k9Uf3yvj8wu4J5K-148" value="" style="endArrow=oval;html=1;rounded=0;exitX=0;exitY=0.25;exitDx=0;exitDy=0;endFill=0;" parent="1" edge="1">
          <mxGeometry width="50" height="50" relative="1" as="geometry">
            <mxPoint x="920" y="150" as="sourcePoint" />
            <mxPoint x="960" y="150" as="targetPoint" />
          </mxGeometry>
        </mxCell>
        <mxCell id="jZSy8k9Uf3yvj8wu4J5K-149" value="telefono" style="text;html=1;strokeColor=none;fillColor=none;align=center;verticalAlign=middle;whiteSpace=wrap;rounded=0;direction=west;" parent="1" vertex="1">
          <mxGeometry x="1005" y="-62.5" width="100" height="30" as="geometry" />
        </mxCell>
        <mxCell id="jZSy8k9Uf3yvj8wu4J5K-192" style="edgeStyle=elbowEdgeStyle;rounded=0;orthogonalLoop=1;jettySize=auto;html=1;exitX=1;exitY=0.5;exitDx=0;exitDy=0;entryX=0;entryY=0.5;entryDx=0;entryDy=0;shadow=0;labelBackgroundColor=#000000;endArrow=none;endFill=0;" parent="1" target="jZSy8k9Uf3yvj8wu4J5K-153" edge="1">
          <mxGeometry relative="1" as="geometry">
            <mxPoint x="1320" y="320" as="sourcePoint" />
          </mxGeometry>
        </mxCell>
        <mxCell id="jZSy8k9Uf3yvj8wu4J5K-200" value="" style="edgeStyle=elbowEdgeStyle;rounded=0;orthogonalLoop=1;jettySize=auto;html=1;shadow=0;labelBackgroundColor=#000000;endArrow=none;endFill=0;" parent="1" target="jZSy8k9Uf3yvj8wu4J5K-85" edge="1">
          <mxGeometry relative="1" as="geometry">
            <mxPoint x="1160" y="320" as="sourcePoint" />
          </mxGeometry>
        </mxCell>
        <mxCell id="jZSy8k9Uf3yvj8wu4J5K-154" style="edgeStyle=elbowEdgeStyle;rounded=0;orthogonalLoop=1;jettySize=auto;elbow=vertical;html=1;exitX=0.5;exitY=0;exitDx=0;exitDy=0;shadow=0;labelBackgroundColor=#000000;endArrow=none;endFill=0;" parent="1" source="jZSy8k9Uf3yvj8wu4J5K-152" target="jZSy8k9Uf3yvj8wu4J5K-83" edge="1">
          <mxGeometry relative="1" as="geometry">
            <Array as="points">
              <mxPoint x="880" y="60" />
              <mxPoint x="900" y="40" />
              <mxPoint x="1180" y="40" />
            </Array>
          </mxGeometry>
        </mxCell>
        <mxCell id="jZSy8k9Uf3yvj8wu4J5K-155" style="edgeStyle=elbowEdgeStyle;rounded=0;orthogonalLoop=1;jettySize=auto;elbow=vertical;html=1;exitX=0.5;exitY=1;exitDx=0;exitDy=0;entryX=0.5;entryY=0;entryDx=0;entryDy=0;shadow=0;labelBackgroundColor=#000000;endArrow=none;endFill=0;" parent="1" source="jZSy8k9Uf3yvj8wu4J5K-152" target="jZSy8k9Uf3yvj8wu4J5K-133" edge="1">
          <mxGeometry relative="1" as="geometry" />
        </mxCell>
        <mxCell id="jZSy8k9Uf3yvj8wu4J5K-152" value="afferenza" style="shape=rhombus;perimeter=rhombusPerimeter;whiteSpace=wrap;html=1;align=center;" parent="1" vertex="1">
          <mxGeometry x="1650" y="175" width="120" height="60" as="geometry" />
        </mxCell>
        <mxCell id="jZSy8k9Uf3yvj8wu4J5K-193" style="edgeStyle=elbowEdgeStyle;rounded=0;orthogonalLoop=1;jettySize=auto;html=1;exitX=1;exitY=0.5;exitDx=0;exitDy=0;entryX=0;entryY=0.5;entryDx=0;entryDy=0;shadow=0;labelBackgroundColor=#000000;endArrow=none;endFill=0;" parent="1" source="jZSy8k9Uf3yvj8wu4J5K-153" target="jZSy8k9Uf3yvj8wu4J5K-133" edge="1">
          <mxGeometry relative="1" as="geometry" />
        </mxCell>
        <mxCell id="jZSy8k9Uf3yvj8wu4J5K-153" value="direzione" style="shape=rhombus;perimeter=rhombusPerimeter;whiteSpace=wrap;html=1;align=center;" parent="1" vertex="1">
          <mxGeometry x="1380" y="290" width="120" height="60" as="geometry" />
        </mxCell>
        <mxCell id="MBOUWFR5yHpP2ibVQKA5-126" style="edgeStyle=orthogonalEdgeStyle;rounded=0;jumpStyle=arc;jumpSize=25;orthogonalLoop=1;jettySize=auto;html=1;exitX=0.5;exitY=1;exitDx=0;exitDy=0;entryX=1;entryY=0.5;entryDx=0;entryDy=0;endArrow=none;endFill=0;" parent="1" source="jZSy8k9Uf3yvj8wu4J5K-158" target="jZSy8k9Uf3yvj8wu4J5K-13" edge="1">
          <mxGeometry relative="1" as="geometry">
            <Array as="points">
              <mxPoint x="560" y="1410" />
              <mxPoint x="2510" y="1410" />
              <mxPoint x="2510" y="520" />
            </Array>
          </mxGeometry>
        </mxCell>
        <mxCell id="jZSy8k9Uf3yvj8wu4J5K-158" value="vendita" style="shape=rhombus;perimeter=rhombusPerimeter;whiteSpace=wrap;html=1;align=center;" parent="1" vertex="1">
          <mxGeometry x="500" y="707.5" width="120" height="60" as="geometry" />
        </mxCell>
        <mxCell id="MBOUWFR5yHpP2ibVQKA5-4" style="edgeStyle=orthogonalEdgeStyle;rounded=0;orthogonalLoop=1;jettySize=auto;html=1;entryX=0.5;entryY=1;entryDx=0;entryDy=0;endArrow=none;endFill=0;" parent="1" source="jZSy8k9Uf3yvj8wu4J5K-166" target="MBOUWFR5yHpP2ibVQKA5-2" edge="1">
          <mxGeometry relative="1" as="geometry" />
        </mxCell>
        <mxCell id="4f7llSYf8M2964etwW2G-8" style="edgeStyle=orthogonalEdgeStyle;rounded=0;orthogonalLoop=1;jettySize=auto;html=1;exitX=0.5;exitY=1;exitDx=0;exitDy=0;entryX=0.5;entryY=0;entryDx=0;entryDy=0;startArrow=none;startFill=0;endArrow=none;endFill=0;" parent="1" source="jZSy8k9Uf3yvj8wu4J5K-166" target="4f7llSYf8M2964etwW2G-7" edge="1">
          <mxGeometry relative="1" as="geometry" />
        </mxCell>
        <mxCell id="jZSy8k9Uf3yvj8wu4J5K-166" value="stoccaggio" style="shape=rhombus;perimeter=rhombusPerimeter;whiteSpace=wrap;html=1;align=center;" parent="1" vertex="1">
          <mxGeometry x="1650" y="655" width="120" height="60" as="geometry" />
        </mxCell>
        <mxCell id="jZSy8k9Uf3yvj8wu4J5K-171" value="magazzinieri" style="whiteSpace=wrap;html=1;align=center;" parent="1" vertex="1">
          <mxGeometry x="760" y="310" width="160" height="80" as="geometry" />
        </mxCell>
        <mxCell id="4f7llSYf8M2964etwW2G-35" style="edgeStyle=orthogonalEdgeStyle;rounded=0;jumpStyle=arc;jumpSize=25;orthogonalLoop=1;jettySize=auto;html=1;exitX=1;exitY=0.5;exitDx=0;exitDy=0;entryX=0;entryY=0.5;entryDx=0;entryDy=0;startArrow=none;startFill=0;endArrow=none;endFill=0;" parent="1" source="jZSy8k9Uf3yvj8wu4J5K-174" target="jZSy8k9Uf3yvj8wu4J5K-14" edge="1">
          <mxGeometry relative="1" as="geometry" />
        </mxCell>
        <mxCell id="4f7llSYf8M2964etwW2G-37" style="edgeStyle=orthogonalEdgeStyle;rounded=0;jumpStyle=none;jumpSize=25;orthogonalLoop=1;jettySize=auto;html=1;exitX=0;exitY=0.5;exitDx=0;exitDy=0;entryX=1.002;entryY=0.128;entryDx=0;entryDy=0;entryPerimeter=0;startArrow=none;startFill=0;endArrow=none;endFill=0;" parent="1" source="jZSy8k9Uf3yvj8wu4J5K-174" target="jZSy8k9Uf3yvj8wu4J5K-133" edge="1">
          <mxGeometry relative="1" as="geometry" />
        </mxCell>
        <mxCell id="jZSy8k9Uf3yvj8wu4J5K-174" value="effettuazione" style="shape=rhombus;perimeter=rhombusPerimeter;whiteSpace=wrap;html=1;align=center;" parent="1" vertex="1">
          <mxGeometry x="2130" y="260" width="120" height="60" as="geometry" />
        </mxCell>
        <mxCell id="jZSy8k9Uf3yvj8wu4J5K-194" value="autorizza" style="shape=rhombus;perimeter=rhombusPerimeter;whiteSpace=wrap;html=1;align=center;" parent="1" vertex="1">
          <mxGeometry x="1180" y="400" width="120" height="60" as="geometry" />
        </mxCell>
        <mxCell id="jZSy8k9Uf3yvj8wu4J5K-205" style="edgeStyle=elbowEdgeStyle;rounded=0;orthogonalLoop=1;jettySize=auto;html=1;exitX=0;exitY=0.5;exitDx=0;exitDy=0;entryX=0.5;entryY=0;entryDx=0;entryDy=0;shadow=0;labelBackgroundColor=#000000;endArrow=none;endFill=0;" parent="1" source="jZSy8k9Uf3yvj8wu4J5K-204" target="jZSy8k9Uf3yvj8wu4J5K-83" edge="1">
          <mxGeometry relative="1" as="geometry">
            <Array as="points">
              <mxPoint x="850" y="-30" />
            </Array>
          </mxGeometry>
        </mxCell>
        <mxCell id="jZSy8k9Uf3yvj8wu4J5K-213" style="edgeStyle=elbowEdgeStyle;rounded=0;orthogonalLoop=1;jettySize=auto;html=1;exitX=1;exitY=0.5;exitDx=0;exitDy=0;entryX=0.5;entryY=0;entryDx=0;entryDy=0;shadow=0;labelBackgroundColor=#000000;endArrow=none;endFill=0;" parent="1" source="jZSy8k9Uf3yvj8wu4J5K-204" target="jZSy8k9Uf3yvj8wu4J5K-14" edge="1">
          <mxGeometry relative="1" as="geometry">
            <Array as="points">
              <mxPoint x="2600" y="180" />
            </Array>
            <mxPoint x="2840" y="240.00000000000023" as="targetPoint" />
          </mxGeometry>
        </mxCell>
        <mxCell id="jZSy8k9Uf3yvj8wu4J5K-204" value="retribuzione" style="shape=rhombus;perimeter=rhombusPerimeter;whiteSpace=wrap;html=1;align=center;" parent="1" vertex="1">
          <mxGeometry x="1640" y="-30" width="120" height="60" as="geometry" />
        </mxCell>
        <mxCell id="MBOUWFR5yHpP2ibVQKA5-69" style="edgeStyle=orthogonalEdgeStyle;rounded=0;orthogonalLoop=1;jettySize=auto;html=1;exitX=0.5;exitY=1;exitDx=0;exitDy=0;entryX=0.5;entryY=0;entryDx=0;entryDy=0;endArrow=none;endFill=0;" parent="1" source="jZSy8k9Uf3yvj8wu4J5K-207" target="jZSy8k9Uf3yvj8wu4J5K-208" edge="1">
          <mxGeometry relative="1" as="geometry" />
        </mxCell>
        <mxCell id="4f7llSYf8M2964etwW2G-34" style="edgeStyle=orthogonalEdgeStyle;rounded=0;jumpStyle=arc;jumpSize=25;orthogonalLoop=1;jettySize=auto;html=1;exitX=0.5;exitY=0;exitDx=0;exitDy=0;entryX=1;entryY=0.5;entryDx=0;entryDy=0;startArrow=none;startFill=0;endArrow=none;endFill=0;" parent="1" source="jZSy8k9Uf3yvj8wu4J5K-207" target="jZSy8k9Uf3yvj8wu4J5K-14" edge="1">
          <mxGeometry relative="1" as="geometry" />
        </mxCell>
        <mxCell id="jZSy8k9Uf3yvj8wu4J5K-207" value="ordine" style="shape=rhombus;perimeter=rhombusPerimeter;whiteSpace=wrap;html=1;align=center;" parent="1" vertex="1">
          <mxGeometry x="2780" y="720" width="120" height="60" as="geometry" />
        </mxCell>
        <mxCell id="MBOUWFR5yHpP2ibVQKA5-36" style="edgeStyle=orthogonalEdgeStyle;rounded=0;orthogonalLoop=1;jettySize=auto;html=1;exitX=0.5;exitY=1;exitDx=0;exitDy=0;entryX=0.5;entryY=0;entryDx=0;entryDy=0;endArrow=none;endFill=0;" parent="1" source="jZSy8k9Uf3yvj8wu4J5K-208" target="MBOUWFR5yHpP2ibVQKA5-21" edge="1">
          <mxGeometry relative="1" as="geometry" />
        </mxCell>
        <mxCell id="MBOUWFR5yHpP2ibVQKA5-71" style="edgeStyle=orthogonalEdgeStyle;rounded=0;orthogonalLoop=1;jettySize=auto;html=1;exitX=1;exitY=0.5;exitDx=0;exitDy=0;entryX=0.5;entryY=1;entryDx=0;entryDy=0;endArrow=none;endFill=0;" parent="1" source="jZSy8k9Uf3yvj8wu4J5K-208" target="MBOUWFR5yHpP2ibVQKA5-55" edge="1">
          <mxGeometry relative="1" as="geometry">
            <Array as="points">
              <mxPoint x="2940" y="873" />
              <mxPoint x="2940" y="1450" />
              <mxPoint x="840" y="1450" />
            </Array>
          </mxGeometry>
        </mxCell>
        <mxCell id="MBOUWFR5yHpP2ibVQKA5-93" style="edgeStyle=orthogonalEdgeStyle;rounded=0;jumpStyle=none;jumpSize=25;orthogonalLoop=1;jettySize=auto;html=1;exitX=0;exitY=0.5;exitDx=0;exitDy=0;endArrow=none;endFill=0;" parent="1" source="jZSy8k9Uf3yvj8wu4J5K-208" edge="1">
          <mxGeometry relative="1" as="geometry">
            <mxPoint x="2630" y="872.5" as="targetPoint" />
          </mxGeometry>
        </mxCell>
        <mxCell id="jZSy8k9Uf3yvj8wu4J5K-208" value="fornitura" style="whiteSpace=wrap;html=1;align=center;" parent="1" vertex="1">
          <mxGeometry x="2760" y="832.5" width="160" height="80" as="geometry" />
        </mxCell>
        <mxCell id="MBOUWFR5yHpP2ibVQKA5-7" style="edgeStyle=orthogonalEdgeStyle;rounded=0;orthogonalLoop=1;jettySize=auto;html=1;exitX=0.5;exitY=0;exitDx=0;exitDy=0;entryX=0;entryY=0.5;entryDx=0;entryDy=0;endArrow=none;endFill=0;" parent="1" source="jZSy8k9Uf3yvj8wu4J5K-218" target="jZSy8k9Uf3yvj8wu4J5K-13" edge="1">
          <mxGeometry relative="1" as="geometry" />
        </mxCell>
        <mxCell id="4f7llSYf8M2964etwW2G-19" style="edgeStyle=orthogonalEdgeStyle;rounded=0;orthogonalLoop=1;jettySize=auto;html=1;entryX=1;entryY=0.5;entryDx=0;entryDy=0;startArrow=none;startFill=0;endArrow=none;endFill=0;" parent="1" source="jZSy8k9Uf3yvj8wu4J5K-218" target="jZSy8k9Uf3yvj8wu4J5K-54" edge="1">
          <mxGeometry relative="1" as="geometry" />
        </mxCell>
        <mxCell id="jZSy8k9Uf3yvj8wu4J5K-218" value="composizione ricevuta" style="shape=rhombus;perimeter=rhombusPerimeter;whiteSpace=wrap;html=1;align=center;" parent="1" vertex="1">
          <mxGeometry x="1910" y="942.5" width="120" height="60" as="geometry" />
        </mxCell>
        <mxCell id="jZSy8k9Uf3yvj8wu4J5K-221" value="" style="endArrow=oval;html=1;rounded=0;exitX=0;exitY=0;exitDx=0;exitDy=0;endFill=0;" parent="1" source="jZSy8k9Uf3yvj8wu4J5K-218" edge="1">
          <mxGeometry width="50" height="50" relative="1" as="geometry">
            <mxPoint x="1940" y="727.5" as="sourcePoint" />
            <mxPoint x="1940" y="930" as="targetPoint" />
          </mxGeometry>
        </mxCell>
        <mxCell id="jZSy8k9Uf3yvj8wu4J5K-223" value="id" style="text;html=1;strokeColor=none;fillColor=none;align=center;verticalAlign=middle;whiteSpace=wrap;rounded=0;" parent="1" vertex="1">
          <mxGeometry x="2710" y="772.5" width="60" height="30" as="geometry" />
        </mxCell>
        <mxCell id="jZSy8k9Uf3yvj8wu4J5K-224" value="" style="endArrow=oval;html=1;rounded=0;exitX=0;exitY=0;exitDx=0;exitDy=0;endFill=1;" parent="1" edge="1">
          <mxGeometry width="50" height="50" relative="1" as="geometry">
            <mxPoint x="2770" y="832.5" as="sourcePoint" />
            <mxPoint x="2770" y="790.5" as="targetPoint" />
          </mxGeometry>
        </mxCell>
        <mxCell id="jZSy8k9Uf3yvj8wu4J5K-225" value="importo" style="text;html=1;strokeColor=none;fillColor=none;align=center;verticalAlign=middle;whiteSpace=wrap;rounded=0;" parent="1" vertex="1">
          <mxGeometry x="2630" y="162.5" width="60" height="30" as="geometry" />
        </mxCell>
        <mxCell id="jZSy8k9Uf3yvj8wu4J5K-227" value="n _transazione" style="text;html=1;strokeColor=none;fillColor=none;align=center;verticalAlign=middle;whiteSpace=wrap;rounded=0;" parent="1" vertex="1">
          <mxGeometry x="2080" y="415" width="90" height="30" as="geometry" />
        </mxCell>
        <mxCell id="jZSy8k9Uf3yvj8wu4J5K-232" value="nr. ricetta" style="text;html=1;strokeColor=none;fillColor=none;align=center;verticalAlign=middle;whiteSpace=wrap;rounded=0;" parent="1" vertex="1">
          <mxGeometry x="2310" y="695" width="60" height="30" as="geometry" />
        </mxCell>
        <mxCell id="jZSy8k9Uf3yvj8wu4J5K-242" value="" style="endArrow=oval;html=1;rounded=0;exitX=0;exitY=0;exitDx=0;exitDy=0;endFill=0;" parent="1" edge="1">
          <mxGeometry width="50" height="50" relative="1" as="geometry">
            <mxPoint x="2669.5800000000004" y="250" as="sourcePoint" />
            <mxPoint x="2669.5800000000004" y="208" as="targetPoint" />
          </mxGeometry>
        </mxCell>
        <mxCell id="pQ_YXbvvkogFB3tShBqx-12" style="edgeStyle=orthogonalEdgeStyle;rounded=0;orthogonalLoop=1;jettySize=auto;html=1;exitX=0.5;exitY=1;exitDx=0;exitDy=0;entryX=0.144;entryY=0;entryDx=0;entryDy=0;entryPerimeter=0;endArrow=none;endFill=0;" parent="1" source="pQ_YXbvvkogFB3tShBqx-1" target="jZSy8k9Uf3yvj8wu4J5K-83" edge="1">
          <mxGeometry relative="1" as="geometry" />
        </mxCell>
        <mxCell id="pQ_YXbvvkogFB3tShBqx-1" value="indirizzo" style="ellipse;whiteSpace=wrap;html=1;align=center;" parent="1" vertex="1">
          <mxGeometry x="760" y="27.5" width="50" height="25" as="geometry" />
        </mxCell>
        <mxCell id="pQ_YXbvvkogFB3tShBqx-2" value="" style="endArrow=oval;html=1;rounded=0;exitX=1;exitY=0;exitDx=0;exitDy=0;endFill=0;" parent="1" source="pQ_YXbvvkogFB3tShBqx-1" edge="1">
          <mxGeometry width="50" height="50" relative="1" as="geometry">
            <mxPoint x="750" y="-42.49999999999977" as="sourcePoint" />
            <mxPoint x="803" y="-2.5" as="targetPoint" />
          </mxGeometry>
        </mxCell>
        <mxCell id="pQ_YXbvvkogFB3tShBqx-3" value="" style="endArrow=oval;html=1;rounded=0;exitX=0.5;exitY=0;exitDx=0;exitDy=0;endFill=0;" parent="1" source="pQ_YXbvvkogFB3tShBqx-1" edge="1">
          <mxGeometry width="50" height="50" relative="1" as="geometry">
            <mxPoint x="750" y="-22.5" as="sourcePoint" />
            <mxPoint x="785" y="-22.5" as="targetPoint" />
          </mxGeometry>
        </mxCell>
        <mxCell id="pQ_YXbvvkogFB3tShBqx-4" value="" style="endArrow=oval;html=1;rounded=0;exitX=0;exitY=0;exitDx=0;exitDy=0;endFill=0;" parent="1" source="pQ_YXbvvkogFB3tShBqx-1" edge="1">
          <mxGeometry width="50" height="50" relative="1" as="geometry">
            <mxPoint x="750" y="-2.5" as="sourcePoint" />
            <mxPoint x="767" y="-2.5" as="targetPoint" />
          </mxGeometry>
        </mxCell>
        <mxCell id="pQ_YXbvvkogFB3tShBqx-5" value="citta&#39;" style="text;html=1;strokeColor=none;fillColor=none;align=center;verticalAlign=middle;whiteSpace=wrap;rounded=0;" parent="1" vertex="1">
          <mxGeometry x="720" y="-22.5" width="60" height="30" as="geometry" />
        </mxCell>
        <mxCell id="pQ_YXbvvkogFB3tShBqx-6" value="stato" style="text;html=1;strokeColor=none;fillColor=none;align=center;verticalAlign=middle;whiteSpace=wrap;rounded=0;" parent="1" vertex="1">
          <mxGeometry x="790" y="-32.5" width="60" height="30" as="geometry" />
        </mxCell>
        <mxCell id="pQ_YXbvvkogFB3tShBqx-7" value="C.A.P." style="text;html=1;strokeColor=none;fillColor=none;align=center;verticalAlign=middle;whiteSpace=wrap;rounded=0;" parent="1" vertex="1">
          <mxGeometry x="730" y="-52.5" width="80" height="30" as="geometry" />
        </mxCell>
        <mxCell id="pQ_YXbvvkogFB3tShBqx-8" value="via" style="text;html=1;strokeColor=none;fillColor=none;align=center;verticalAlign=middle;whiteSpace=wrap;rounded=0;" parent="1" vertex="1">
          <mxGeometry x="700" y="-2.5" width="60" height="30" as="geometry" />
        </mxCell>
        <mxCell id="pQ_YXbvvkogFB3tShBqx-9" value="" style="endArrow=oval;html=1;rounded=0;exitX=0;exitY=0.25;exitDx=0;exitDy=0;endFill=0;" parent="1" edge="1">
          <mxGeometry width="50" height="50" relative="1" as="geometry">
            <mxPoint x="760" y="39.50000000000023" as="sourcePoint" />
            <mxPoint x="750" y="17.5" as="targetPoint" />
          </mxGeometry>
        </mxCell>
        <mxCell id="pQ_YXbvvkogFB3tShBqx-22" style="edgeStyle=orthogonalEdgeStyle;rounded=0;orthogonalLoop=1;jettySize=auto;html=1;exitX=0.5;exitY=1;exitDx=0;exitDy=0;entryX=0;entryY=0.25;entryDx=0;entryDy=0;endArrow=none;endFill=0;" parent="1" source="pQ_YXbvvkogFB3tShBqx-13" target="jZSy8k9Uf3yvj8wu4J5K-133" edge="1">
          <mxGeometry relative="1" as="geometry" />
        </mxCell>
        <mxCell id="pQ_YXbvvkogFB3tShBqx-13" value="indirizzo" style="ellipse;whiteSpace=wrap;html=1;align=center;" parent="1" vertex="1">
          <mxGeometry x="1570" y="252.5" width="50" height="25" as="geometry" />
        </mxCell>
        <mxCell id="pQ_YXbvvkogFB3tShBqx-14" value="" style="endArrow=oval;html=1;rounded=0;exitX=1;exitY=0;exitDx=0;exitDy=0;endFill=0;" parent="1" source="pQ_YXbvvkogFB3tShBqx-13" edge="1">
          <mxGeometry width="50" height="50" relative="1" as="geometry">
            <mxPoint x="1560" y="182.50000000000023" as="sourcePoint" />
            <mxPoint x="1613" y="222.5" as="targetPoint" />
          </mxGeometry>
        </mxCell>
        <mxCell id="pQ_YXbvvkogFB3tShBqx-15" value="" style="endArrow=oval;html=1;rounded=0;exitX=0.5;exitY=0;exitDx=0;exitDy=0;endFill=0;" parent="1" source="pQ_YXbvvkogFB3tShBqx-13" edge="1">
          <mxGeometry width="50" height="50" relative="1" as="geometry">
            <mxPoint x="1560" y="202.5" as="sourcePoint" />
            <mxPoint x="1595" y="202.5" as="targetPoint" />
          </mxGeometry>
        </mxCell>
        <mxCell id="pQ_YXbvvkogFB3tShBqx-16" value="" style="endArrow=oval;html=1;rounded=0;exitX=0;exitY=0;exitDx=0;exitDy=0;endFill=0;" parent="1" source="pQ_YXbvvkogFB3tShBqx-13" edge="1">
          <mxGeometry width="50" height="50" relative="1" as="geometry">
            <mxPoint x="1560" y="222.5" as="sourcePoint" />
            <mxPoint x="1577" y="222.5" as="targetPoint" />
          </mxGeometry>
        </mxCell>
        <mxCell id="pQ_YXbvvkogFB3tShBqx-17" value="citta&#39;" style="text;html=1;strokeColor=none;fillColor=none;align=center;verticalAlign=middle;whiteSpace=wrap;rounded=0;" parent="1" vertex="1">
          <mxGeometry x="1530" y="202.5" width="60" height="30" as="geometry" />
        </mxCell>
        <mxCell id="pQ_YXbvvkogFB3tShBqx-18" value="C.A.P." style="text;html=1;strokeColor=none;fillColor=none;align=center;verticalAlign=middle;whiteSpace=wrap;rounded=0;" parent="1" vertex="1">
          <mxGeometry x="1540" y="172.5" width="80" height="30" as="geometry" />
        </mxCell>
        <mxCell id="pQ_YXbvvkogFB3tShBqx-19" value="via" style="text;html=1;strokeColor=none;fillColor=none;align=center;verticalAlign=middle;whiteSpace=wrap;rounded=0;" parent="1" vertex="1">
          <mxGeometry x="1510" y="222.5" width="60" height="30" as="geometry" />
        </mxCell>
        <mxCell id="pQ_YXbvvkogFB3tShBqx-20" value="" style="endArrow=oval;html=1;rounded=0;exitX=0;exitY=0.25;exitDx=0;exitDy=0;endFill=0;" parent="1" edge="1">
          <mxGeometry width="50" height="50" relative="1" as="geometry">
            <mxPoint x="1570" y="264.5000000000002" as="sourcePoint" />
            <mxPoint x="1560" y="242.5" as="targetPoint" />
          </mxGeometry>
        </mxCell>
        <mxCell id="pQ_YXbvvkogFB3tShBqx-25" value="stato" style="text;html=1;strokeColor=none;fillColor=none;align=center;verticalAlign=middle;whiteSpace=wrap;rounded=0;" parent="1" vertex="1">
          <mxGeometry x="1600" y="192.5" width="60" height="30" as="geometry" />
        </mxCell>
        <mxCell id="pQ_YXbvvkogFB3tShBqx-26" value="" style="endArrow=oval;html=1;rounded=0;exitX=0;exitY=0.25;exitDx=0;exitDy=0;endFill=0;" parent="1" edge="1">
          <mxGeometry width="50" height="50" relative="1" as="geometry">
            <mxPoint x="1790" y="321.5" as="sourcePoint" />
            <mxPoint x="1830" y="321.5" as="targetPoint" />
          </mxGeometry>
        </mxCell>
        <mxCell id="pQ_YXbvvkogFB3tShBqx-27" value="telefono" style="text;html=1;strokeColor=none;fillColor=none;align=center;verticalAlign=middle;whiteSpace=wrap;rounded=0;" parent="1" vertex="1">
          <mxGeometry x="1820" y="295" width="60" height="30" as="geometry" />
        </mxCell>
        <mxCell id="pQ_YXbvvkogFB3tShBqx-29" value="&lt;font style=&quot;font-size: 7px&quot;&gt;(1,N)&lt;/font&gt;" style="text;html=1;strokeColor=none;fillColor=none;align=center;verticalAlign=middle;whiteSpace=wrap;rounded=0;" parent="1" vertex="1">
          <mxGeometry x="1800" y="310" width="20" height="10" as="geometry" />
        </mxCell>
        <mxCell id="pQ_YXbvvkogFB3tShBqx-35" value="&lt;font style=&quot;font-size: 7px&quot;&gt;(0,1)&lt;/font&gt;" style="text;html=1;strokeColor=none;fillColor=none;align=center;verticalAlign=middle;whiteSpace=wrap;rounded=0;" parent="1" vertex="1">
          <mxGeometry x="1710" y="370" width="20" height="10" as="geometry" />
        </mxCell>
        <mxCell id="pQ_YXbvvkogFB3tShBqx-44" style="edgeStyle=orthogonalEdgeStyle;rounded=0;orthogonalLoop=1;jettySize=auto;html=1;exitX=0.5;exitY=1;exitDx=0;exitDy=0;entryX=0.5;entryY=0;entryDx=0;entryDy=0;fontSize=7;endArrow=none;endFill=0;" parent="1" source="pQ_YXbvvkogFB3tShBqx-43" edge="1">
          <mxGeometry relative="1" as="geometry">
            <mxPoint x="1240" y="280" as="targetPoint" />
          </mxGeometry>
        </mxCell>
        <mxCell id="4f7llSYf8M2964etwW2G-69" style="edgeStyle=orthogonalEdgeStyle;rounded=0;jumpStyle=none;jumpSize=25;orthogonalLoop=1;jettySize=auto;html=1;entryX=1;entryY=0.25;entryDx=0;entryDy=0;startArrow=none;startFill=0;endArrow=none;endFill=0;" parent="1" source="pQ_YXbvvkogFB3tShBqx-43" target="jZSy8k9Uf3yvj8wu4J5K-83" edge="1">
          <mxGeometry relative="1" as="geometry" />
        </mxCell>
        <mxCell id="pQ_YXbvvkogFB3tShBqx-43" value="&lt;font style=&quot;font-size: 12px&quot;&gt;assunzione&lt;/font&gt;" style="shape=rhombus;perimeter=rhombusPerimeter;whiteSpace=wrap;html=1;align=center;fontSize=7;" parent="1" vertex="1">
          <mxGeometry x="1180" y="70" width="120" height="60" as="geometry" />
        </mxCell>
        <mxCell id="pQ_YXbvvkogFB3tShBqx-50" value="data_assunzione" style="text;html=1;strokeColor=none;fillColor=none;align=center;verticalAlign=middle;whiteSpace=wrap;rounded=0;direction=west;" parent="1" vertex="1">
          <mxGeometry x="1360" y="100" width="60" height="30" as="geometry" />
        </mxCell>
        <mxCell id="pQ_YXbvvkogFB3tShBqx-51" value="" style="endArrow=oval;html=1;rounded=0;exitX=0;exitY=0.25;exitDx=0;exitDy=0;endFill=0;" parent="1" edge="1">
          <mxGeometry width="50" height="50" relative="1" as="geometry">
            <mxPoint x="1300" y="120.00000000000023" as="sourcePoint" />
            <mxPoint x="1340" y="120.00000000000023" as="targetPoint" />
          </mxGeometry>
        </mxCell>
        <mxCell id="pQ_YXbvvkogFB3tShBqx-58" value="principio attivo" style="text;html=1;strokeColor=none;fillColor=none;align=center;verticalAlign=middle;whiteSpace=wrap;rounded=0;" parent="1" vertex="1">
          <mxGeometry x="1500" y="1207.5" width="80" height="30" as="geometry" />
        </mxCell>
        <mxCell id="pQ_YXbvvkogFB3tShBqx-59" value="" style="endArrow=oval;html=1;rounded=0;exitX=0;exitY=0.25;exitDx=0;exitDy=0;endFill=0;" parent="1" edge="1">
          <mxGeometry width="50" height="50" relative="1" as="geometry">
            <mxPoint x="1630" y="1227.5" as="sourcePoint" />
            <mxPoint x="1590" y="1227.5" as="targetPoint" />
          </mxGeometry>
        </mxCell>
        <mxCell id="MBOUWFR5yHpP2ibVQKA5-5" style="edgeStyle=orthogonalEdgeStyle;rounded=0;orthogonalLoop=1;jettySize=auto;html=1;exitX=0.5;exitY=0;exitDx=0;exitDy=0;entryX=0.5;entryY=1;entryDx=0;entryDy=0;endArrow=none;endFill=0;" parent="1" source="MBOUWFR5yHpP2ibVQKA5-2" target="MBOUWFR5yHpP2ibVQKA5-3" edge="1">
          <mxGeometry relative="1" as="geometry" />
        </mxCell>
        <mxCell id="MBOUWFR5yHpP2ibVQKA5-2" value="magazzino" style="whiteSpace=wrap;html=1;align=center;" parent="1" vertex="1">
          <mxGeometry x="1630" y="540" width="160" height="80" as="geometry" />
        </mxCell>
        <mxCell id="MBOUWFR5yHpP2ibVQKA5-6" style="edgeStyle=orthogonalEdgeStyle;rounded=0;orthogonalLoop=1;jettySize=auto;html=1;exitX=0.5;exitY=0;exitDx=0;exitDy=0;entryX=0.5;entryY=1;entryDx=0;entryDy=0;endArrow=none;endFill=0;" parent="1" source="MBOUWFR5yHpP2ibVQKA5-3" target="jZSy8k9Uf3yvj8wu4J5K-133" edge="1">
          <mxGeometry relative="1" as="geometry" />
        </mxCell>
        <mxCell id="MBOUWFR5yHpP2ibVQKA5-3" value="appartenenza" style="shape=rhombus;perimeter=rhombusPerimeter;whiteSpace=wrap;html=1;align=center;" parent="1" vertex="1">
          <mxGeometry x="1650" y="420" width="120" height="60" as="geometry" />
        </mxCell>
        <mxCell id="MBOUWFR5yHpP2ibVQKA5-14" style="edgeStyle=orthogonalEdgeStyle;rounded=0;orthogonalLoop=1;jettySize=auto;html=1;exitX=0.5;exitY=1;exitDx=0;exitDy=0;entryX=0.5;entryY=0;entryDx=0;entryDy=0;endArrow=none;endFill=0;" parent="1" source="MBOUWFR5yHpP2ibVQKA5-10" target="MBOUWFR5yHpP2ibVQKA5-13" edge="1">
          <mxGeometry relative="1" as="geometry" />
        </mxCell>
        <mxCell id="MBOUWFR5yHpP2ibVQKA5-10" value="R-R" style="shape=rhombus;perimeter=rhombusPerimeter;whiteSpace=wrap;html=1;align=center;" parent="1" vertex="1">
          <mxGeometry x="2130" y="610" width="120" height="60" as="geometry" />
        </mxCell>
        <mxCell id="MBOUWFR5yHpP2ibVQKA5-18" style="edgeStyle=orthogonalEdgeStyle;rounded=0;orthogonalLoop=1;jettySize=auto;html=1;exitX=0.5;exitY=1;exitDx=0;exitDy=0;entryX=0.5;entryY=0;entryDx=0;entryDy=0;jumpStyle=arc;jumpSize=25;endArrow=none;endFill=0;" parent="1" source="MBOUWFR5yHpP2ibVQKA5-13" target="MBOUWFR5yHpP2ibVQKA5-17" edge="1">
          <mxGeometry relative="1" as="geometry" />
        </mxCell>
        <mxCell id="MBOUWFR5yHpP2ibVQKA5-13" value="ricette" style="whiteSpace=wrap;html=1;align=center;" parent="1" vertex="1">
          <mxGeometry x="2110" y="705" width="160" height="80" as="geometry" />
        </mxCell>
        <mxCell id="4f7llSYf8M2964etwW2G-44" style="edgeStyle=orthogonalEdgeStyle;rounded=0;jumpStyle=none;jumpSize=25;orthogonalLoop=1;jettySize=auto;html=1;exitX=0;exitY=0.5;exitDx=0;exitDy=0;entryX=1;entryY=0.5;entryDx=0;entryDy=0;startArrow=none;startFill=0;endArrow=none;endFill=0;" parent="1" source="MBOUWFR5yHpP2ibVQKA5-17" target="jZSy8k9Uf3yvj8wu4J5K-58" edge="1">
          <mxGeometry relative="1" as="geometry" />
        </mxCell>
        <mxCell id="MBOUWFR5yHpP2ibVQKA5-17" value="prescrizione" style="shape=rhombus;perimeter=rhombusPerimeter;whiteSpace=wrap;html=1;align=center;" parent="1" vertex="1">
          <mxGeometry x="2130" y="1197.5" width="120" height="60" as="geometry" />
        </mxCell>
        <mxCell id="4f7llSYf8M2964etwW2G-32" style="edgeStyle=orthogonalEdgeStyle;rounded=0;jumpStyle=arc;jumpSize=25;orthogonalLoop=1;jettySize=auto;html=1;entryX=0.5;entryY=0;entryDx=0;entryDy=0;startArrow=none;startFill=0;endArrow=none;endFill=0;" parent="1" source="MBOUWFR5yHpP2ibVQKA5-21" target="MBOUWFR5yHpP2ibVQKA5-22" edge="1">
          <mxGeometry relative="1" as="geometry" />
        </mxCell>
        <mxCell id="MBOUWFR5yHpP2ibVQKA5-21" value="rifornimento" style="shape=rhombus;perimeter=rhombusPerimeter;whiteSpace=wrap;html=1;align=center;" parent="1" vertex="1">
          <mxGeometry x="2780" y="1065" width="120" height="60" as="geometry" />
        </mxCell>
        <mxCell id="MBOUWFR5yHpP2ibVQKA5-22" value="fornitore" style="whiteSpace=wrap;html=1;align=center;" parent="1" vertex="1">
          <mxGeometry x="2760" y="1242.5" width="160" height="80" as="geometry" />
        </mxCell>
        <mxCell id="MBOUWFR5yHpP2ibVQKA5-23" value="quantita&#39;" style="text;html=1;strokeColor=none;fillColor=none;align=center;verticalAlign=middle;whiteSpace=wrap;rounded=0;" parent="1" vertex="1">
          <mxGeometry x="2740" y="1025" width="60" height="30" as="geometry" />
        </mxCell>
        <mxCell id="MBOUWFR5yHpP2ibVQKA5-24" value="" style="endArrow=oval;html=1;rounded=0;exitX=0;exitY=0;exitDx=0;exitDy=0;endFill=0;" parent="1" edge="1">
          <mxGeometry width="50" height="50" relative="1" as="geometry">
            <mxPoint x="2800" y="1085" as="sourcePoint" />
            <mxPoint x="2800" y="1043" as="targetPoint" />
          </mxGeometry>
        </mxCell>
        <mxCell id="MBOUWFR5yHpP2ibVQKA5-25" value="" style="endArrow=oval;html=1;rounded=0;exitX=0;exitY=0.25;exitDx=0;exitDy=0;endFill=1;" parent="1" edge="1">
          <mxGeometry width="50" height="50" relative="1" as="geometry">
            <mxPoint x="2760" y="1272.5" as="sourcePoint" />
            <mxPoint x="2720" y="1272.5" as="targetPoint" />
          </mxGeometry>
        </mxCell>
        <mxCell id="MBOUWFR5yHpP2ibVQKA5-27" value="p. iva" style="text;html=1;strokeColor=none;fillColor=none;align=center;verticalAlign=middle;whiteSpace=wrap;rounded=0;" parent="1" vertex="1">
          <mxGeometry x="2660" y="1257.5" width="60" height="30" as="geometry" />
        </mxCell>
        <mxCell id="MBOUWFR5yHpP2ibVQKA5-29" value="" style="endArrow=oval;html=1;rounded=0;exitX=0;exitY=0.25;exitDx=0;exitDy=0;endFill=0;" parent="1" edge="1">
          <mxGeometry width="50" height="50" relative="1" as="geometry">
            <mxPoint x="2760" y="1287.5" as="sourcePoint" />
            <mxPoint x="2720" y="1287.5" as="targetPoint" />
          </mxGeometry>
        </mxCell>
        <mxCell id="MBOUWFR5yHpP2ibVQKA5-30" value="" style="endArrow=oval;html=1;rounded=0;exitX=0;exitY=0.25;exitDx=0;exitDy=0;endFill=0;" parent="1" edge="1">
          <mxGeometry width="50" height="50" relative="1" as="geometry">
            <mxPoint x="2760" y="1307.08" as="sourcePoint" />
            <mxPoint x="2720" y="1307.08" as="targetPoint" />
          </mxGeometry>
        </mxCell>
        <mxCell id="MBOUWFR5yHpP2ibVQKA5-31" value="pec" style="text;html=1;strokeColor=none;fillColor=none;align=center;verticalAlign=middle;whiteSpace=wrap;rounded=0;" parent="1" vertex="1">
          <mxGeometry x="2660" y="1267.5" width="60" height="30" as="geometry" />
        </mxCell>
        <mxCell id="MBOUWFR5yHpP2ibVQKA5-32" value="telefono" style="text;html=1;strokeColor=none;fillColor=none;align=center;verticalAlign=middle;whiteSpace=wrap;rounded=0;" parent="1" vertex="1">
          <mxGeometry x="2660" y="1292.5" width="60" height="30" as="geometry" />
        </mxCell>
        <mxCell id="MBOUWFR5yHpP2ibVQKA5-33" value="" style="endArrow=oval;html=1;rounded=0;endFill=0;exitX=0;exitY=1;exitDx=0;exitDy=0;" parent="1" source="MBOUWFR5yHpP2ibVQKA5-22" edge="1">
          <mxGeometry width="50" height="50" relative="1" as="geometry">
            <mxPoint x="2760" y="1342.5" as="sourcePoint" />
            <mxPoint x="2720" y="1342.5" as="targetPoint" />
          </mxGeometry>
        </mxCell>
        <mxCell id="MBOUWFR5yHpP2ibVQKA5-34" value="c.c" style="text;html=1;strokeColor=none;fillColor=none;align=center;verticalAlign=middle;whiteSpace=wrap;rounded=0;" parent="1" vertex="1">
          <mxGeometry x="2660" y="1322.5" width="60" height="30" as="geometry" />
        </mxCell>
        <mxCell id="MBOUWFR5yHpP2ibVQKA5-92" style="edgeStyle=orthogonalEdgeStyle;rounded=0;jumpStyle=arc;jumpSize=25;orthogonalLoop=1;jettySize=auto;html=1;exitX=1;exitY=0.5;exitDx=0;exitDy=0;endArrow=none;endFill=0;" parent="1" source="MBOUWFR5yHpP2ibVQKA5-37" edge="1">
          <mxGeometry relative="1" as="geometry">
            <mxPoint x="2630" y="872.5" as="targetPoint" />
          </mxGeometry>
        </mxCell>
        <mxCell id="MBOUWFR5yHpP2ibVQKA5-37" value="&lt;div&gt;composizione&amp;nbsp;&amp;nbsp;&amp;nbsp; fornitura&lt;/div&gt;" style="shape=rhombus;perimeter=rhombusPerimeter;whiteSpace=wrap;html=1;align=center;" parent="1" vertex="1">
          <mxGeometry x="2320" y="840" width="120" height="60" as="geometry" />
        </mxCell>
        <mxCell id="MBOUWFR5yHpP2ibVQKA5-45" value="quantita&#39;" style="text;html=1;strokeColor=none;fillColor=none;align=center;verticalAlign=middle;whiteSpace=wrap;rounded=0;" parent="1" vertex="1">
          <mxGeometry x="2089.6" y="1157.5" width="60" height="30" as="geometry" />
        </mxCell>
        <mxCell id="MBOUWFR5yHpP2ibVQKA5-46" value="" style="endArrow=oval;html=1;rounded=0;exitX=0;exitY=0;exitDx=0;exitDy=0;endFill=0;" parent="1" edge="1">
          <mxGeometry width="50" height="50" relative="1" as="geometry">
            <mxPoint x="2149.6" y="1217.5" as="sourcePoint" />
            <mxPoint x="2149.6" y="1175.5" as="targetPoint" />
          </mxGeometry>
        </mxCell>
        <mxCell id="MBOUWFR5yHpP2ibVQKA5-53" style="edgeStyle=orthogonalEdgeStyle;rounded=0;orthogonalLoop=1;jettySize=auto;html=1;exitX=0.5;exitY=0;exitDx=0;exitDy=0;entryX=0.5;entryY=1;entryDx=0;entryDy=0;endArrow=none;endFill=0;" parent="1" source="MBOUWFR5yHpP2ibVQKA5-48" target="MBOUWFR5yHpP2ibVQKA5-49" edge="1">
          <mxGeometry relative="1" as="geometry" />
        </mxCell>
        <mxCell id="MBOUWFR5yHpP2ibVQKA5-89" style="edgeStyle=orthogonalEdgeStyle;rounded=0;orthogonalLoop=1;jettySize=auto;html=1;endArrow=oval;endFill=1;" parent="1" edge="1">
          <mxGeometry relative="1" as="geometry">
            <mxPoint x="820" y="520" as="targetPoint" />
            <Array as="points">
              <mxPoint x="800" y="640" />
              <mxPoint x="940" y="640" />
              <mxPoint x="940" y="520" />
              <mxPoint x="820" y="520" />
            </Array>
            <mxPoint x="820" y="640" as="sourcePoint" />
          </mxGeometry>
        </mxCell>
        <mxCell id="MBOUWFR5yHpP2ibVQKA5-48" value="operazione su magazzino" style="whiteSpace=wrap;html=1;align=center;" parent="1" vertex="1">
          <mxGeometry x="760" y="540" width="160" height="80" as="geometry" />
        </mxCell>
        <mxCell id="MBOUWFR5yHpP2ibVQKA5-54" style="edgeStyle=orthogonalEdgeStyle;rounded=0;orthogonalLoop=1;jettySize=auto;html=1;exitX=0.5;exitY=0;exitDx=0;exitDy=0;entryX=0.5;entryY=1;entryDx=0;entryDy=0;endArrow=none;endFill=0;" parent="1" source="MBOUWFR5yHpP2ibVQKA5-49" target="jZSy8k9Uf3yvj8wu4J5K-171" edge="1">
          <mxGeometry relative="1" as="geometry" />
        </mxCell>
        <mxCell id="MBOUWFR5yHpP2ibVQKA5-49" value="registrazione" style="shape=rhombus;perimeter=rhombusPerimeter;whiteSpace=wrap;html=1;align=center;" parent="1" vertex="1">
          <mxGeometry x="780" y="425" width="120" height="60" as="geometry" />
        </mxCell>
        <mxCell id="MBOUWFR5yHpP2ibVQKA5-51" style="edgeStyle=orthogonalEdgeStyle;rounded=0;orthogonalLoop=1;jettySize=auto;html=1;entryX=0;entryY=0.5;entryDx=0;entryDy=0;endArrow=none;endFill=0;jumpStyle=arc;jumpSize=25;" parent="1" source="MBOUWFR5yHpP2ibVQKA5-50" target="MBOUWFR5yHpP2ibVQKA5-2" edge="1">
          <mxGeometry relative="1" as="geometry" />
        </mxCell>
        <mxCell id="MBOUWFR5yHpP2ibVQKA5-52" style="edgeStyle=orthogonalEdgeStyle;rounded=0;orthogonalLoop=1;jettySize=auto;html=1;exitX=0;exitY=0.5;exitDx=0;exitDy=0;entryX=1;entryY=0.5;entryDx=0;entryDy=0;endArrow=none;endFill=0;" parent="1" source="MBOUWFR5yHpP2ibVQKA5-50" target="MBOUWFR5yHpP2ibVQKA5-48" edge="1">
          <mxGeometry relative="1" as="geometry" />
        </mxCell>
        <mxCell id="MBOUWFR5yHpP2ibVQKA5-50" value="carico" style="shape=rhombus;perimeter=rhombusPerimeter;whiteSpace=wrap;html=1;align=center;" parent="1" vertex="1">
          <mxGeometry x="1020" y="550" width="120" height="60" as="geometry" />
        </mxCell>
        <mxCell id="MBOUWFR5yHpP2ibVQKA5-57" style="edgeStyle=orthogonalEdgeStyle;rounded=0;orthogonalLoop=1;jettySize=auto;html=1;exitX=0.5;exitY=0;exitDx=0;exitDy=0;entryX=0.5;entryY=1;entryDx=0;entryDy=0;endArrow=none;endFill=0;" parent="1" source="MBOUWFR5yHpP2ibVQKA5-55" target="MBOUWFR5yHpP2ibVQKA5-48" edge="1">
          <mxGeometry relative="1" as="geometry" />
        </mxCell>
        <mxCell id="MBOUWFR5yHpP2ibVQKA5-55" value="gestione" style="shape=rhombus;perimeter=rhombusPerimeter;whiteSpace=wrap;html=1;align=center;" parent="1" vertex="1">
          <mxGeometry x="780" y="715" width="120" height="60" as="geometry" />
        </mxCell>
        <mxCell id="MBOUWFR5yHpP2ibVQKA5-58" value="" style="endArrow=oval;html=1;rounded=0;exitX=0;exitY=0.25;exitDx=0;exitDy=0;endFill=1;" parent="1" edge="1">
          <mxGeometry width="50" height="50" relative="1" as="geometry">
            <mxPoint x="2270" y="710" as="sourcePoint" />
            <mxPoint x="2310" y="710" as="targetPoint" />
          </mxGeometry>
        </mxCell>
        <mxCell id="MBOUWFR5yHpP2ibVQKA5-59" value="" style="endArrow=oval;html=1;rounded=0;exitX=0;exitY=0.25;exitDx=0;exitDy=0;endFill=0;" parent="1" edge="1">
          <mxGeometry width="50" height="50" relative="1" as="geometry">
            <mxPoint x="2270" y="730" as="sourcePoint" />
            <mxPoint x="2310" y="730" as="targetPoint" />
          </mxGeometry>
        </mxCell>
        <mxCell id="MBOUWFR5yHpP2ibVQKA5-60" value="" style="endArrow=oval;html=1;rounded=0;exitX=0;exitY=0.25;exitDx=0;exitDy=0;endFill=0;" parent="1" edge="1">
          <mxGeometry width="50" height="50" relative="1" as="geometry">
            <mxPoint x="2270" y="749.63" as="sourcePoint" />
            <mxPoint x="2310" y="749.63" as="targetPoint" />
          </mxGeometry>
        </mxCell>
        <mxCell id="MBOUWFR5yHpP2ibVQKA5-61" value="" style="endArrow=oval;html=1;rounded=0;exitX=1.001;exitY=0.81;exitDx=0;exitDy=0;endFill=0;exitPerimeter=0;" parent="1" source="MBOUWFR5yHpP2ibVQKA5-13" edge="1">
          <mxGeometry width="50" height="50" relative="1" as="geometry">
            <mxPoint x="2290" y="765" as="sourcePoint" />
            <mxPoint x="2310" y="770" as="targetPoint" />
          </mxGeometry>
        </mxCell>
        <mxCell id="MBOUWFR5yHpP2ibVQKA5-62" value="tipo" style="text;html=1;strokeColor=none;fillColor=none;align=center;verticalAlign=middle;whiteSpace=wrap;rounded=0;" parent="1" vertex="1">
          <mxGeometry x="2300" y="715" width="60" height="30" as="geometry" />
        </mxCell>
        <mxCell id="MBOUWFR5yHpP2ibVQKA5-63" value="data di scadenza" style="text;html=1;strokeColor=none;fillColor=none;align=center;verticalAlign=middle;whiteSpace=wrap;rounded=0;" parent="1" vertex="1">
          <mxGeometry x="2310" y="735" width="110" height="30" as="geometry" />
        </mxCell>
        <mxCell id="MBOUWFR5yHpP2ibVQKA5-64" value="medico" style="text;html=1;strokeColor=none;fillColor=none;align=center;verticalAlign=middle;whiteSpace=wrap;rounded=0;" parent="1" vertex="1">
          <mxGeometry x="2310" y="755" width="60" height="30" as="geometry" />
        </mxCell>
        <mxCell id="MBOUWFR5yHpP2ibVQKA5-65" value="" style="endArrow=oval;html=1;rounded=0;exitX=1.001;exitY=0.81;exitDx=0;exitDy=0;endFill=0;exitPerimeter=0;" parent="1" edge="1">
          <mxGeometry width="50" height="50" relative="1" as="geometry">
            <mxPoint x="2270.16" y="785" as="sourcePoint" />
            <mxPoint x="2310" y="785.1999999999998" as="targetPoint" />
          </mxGeometry>
        </mxCell>
        <mxCell id="MBOUWFR5yHpP2ibVQKA5-66" value="cv paziente" style="text;html=1;strokeColor=none;fillColor=none;align=center;verticalAlign=middle;whiteSpace=wrap;rounded=0;" parent="1" vertex="1">
          <mxGeometry x="2310" y="775" width="70" height="30" as="geometry" />
        </mxCell>
        <mxCell id="MBOUWFR5yHpP2ibVQKA5-75" value="quantita&#39;" style="text;html=1;strokeColor=none;fillColor=none;align=center;verticalAlign=middle;whiteSpace=wrap;rounded=0;" parent="1" vertex="1">
          <mxGeometry x="2280" y="912.5" width="60" height="30" as="geometry" />
        </mxCell>
        <mxCell id="MBOUWFR5yHpP2ibVQKA5-76" value="" style="endArrow=oval;html=1;rounded=0;exitX=0;exitY=1;exitDx=0;exitDy=0;endFill=0;" parent="1" source="MBOUWFR5yHpP2ibVQKA5-37" edge="1">
          <mxGeometry width="50" height="50" relative="1" as="geometry">
            <mxPoint x="2369" y="890" as="sourcePoint" />
            <mxPoint x="2350" y="930" as="targetPoint" />
          </mxGeometry>
        </mxCell>
        <mxCell id="MBOUWFR5yHpP2ibVQKA5-77" value="ricetta necessaria" style="text;html=1;strokeColor=none;fillColor=none;align=center;verticalAlign=middle;whiteSpace=wrap;rounded=0;" parent="1" vertex="1">
          <mxGeometry x="1465" y="1237.5" width="115" height="30" as="geometry" />
        </mxCell>
        <mxCell id="MBOUWFR5yHpP2ibVQKA5-78" value="" style="endArrow=oval;html=1;rounded=0;exitX=0;exitY=0.25;exitDx=0;exitDy=0;endFill=0;" parent="1" edge="1">
          <mxGeometry width="50" height="50" relative="1" as="geometry">
            <mxPoint x="1630.0000000000005" y="1257.5" as="sourcePoint" />
            <mxPoint x="1590.0000000000005" y="1257.5" as="targetPoint" />
          </mxGeometry>
        </mxCell>
        <mxCell id="MBOUWFR5yHpP2ibVQKA5-80" value="(1,1)" style="text;html=1;strokeColor=none;fillColor=none;align=center;verticalAlign=middle;whiteSpace=wrap;rounded=0;" parent="1" vertex="1">
          <mxGeometry x="850" y="505" width="20" height="10" as="geometry" />
        </mxCell>
        <mxCell id="MBOUWFR5yHpP2ibVQKA5-83" value="(1,1)" style="text;html=1;strokeColor=none;fillColor=none;align=center;verticalAlign=middle;whiteSpace=wrap;rounded=0;" parent="1" vertex="1">
          <mxGeometry x="810" y="650" width="20" height="10" as="geometry" />
        </mxCell>
        <mxCell id="MBOUWFR5yHpP2ibVQKA5-86" value="(1,1)" style="text;html=1;strokeColor=none;fillColor=none;align=center;verticalAlign=middle;whiteSpace=wrap;rounded=0;" parent="1" vertex="1">
          <mxGeometry x="950" y="560" width="20" height="10" as="geometry" />
        </mxCell>
        <mxCell id="MBOUWFR5yHpP2ibVQKA5-87" value="" style="endArrow=oval;html=1;rounded=0;exitX=0;exitY=0.25;exitDx=0;exitDy=0;endFill=0;" parent="1" edge="1">
          <mxGeometry width="50" height="50" relative="1" as="geometry">
            <mxPoint x="760" y="570" as="sourcePoint" />
            <mxPoint x="720" y="570" as="targetPoint" />
          </mxGeometry>
        </mxCell>
        <mxCell id="MBOUWFR5yHpP2ibVQKA5-88" value="data" style="text;html=1;strokeColor=none;fillColor=none;align=center;verticalAlign=middle;whiteSpace=wrap;rounded=0;" parent="1" vertex="1">
          <mxGeometry x="670" y="550" width="60" height="30" as="geometry" />
        </mxCell>
        <mxCell id="MBOUWFR5yHpP2ibVQKA5-94" value="(1,1)" style="text;html=1;strokeColor=none;fillColor=none;align=center;verticalAlign=middle;whiteSpace=wrap;rounded=0;" parent="1" vertex="1">
          <mxGeometry x="570" y="500" width="20" height="10" as="geometry" />
        </mxCell>
        <mxCell id="MBOUWFR5yHpP2ibVQKA5-95" value="(0,N)" style="text;html=1;strokeColor=none;fillColor=none;align=center;verticalAlign=middle;whiteSpace=wrap;rounded=0;" parent="1" vertex="1">
          <mxGeometry x="1260" y="370" width="20" height="10" as="geometry" />
        </mxCell>
        <mxCell id="MBOUWFR5yHpP2ibVQKA5-96" value="(0,N)" style="text;html=1;strokeColor=none;fillColor=none;align=center;verticalAlign=middle;whiteSpace=wrap;rounded=0;" parent="1" vertex="1">
          <mxGeometry x="1260" y="260" width="20" height="10" as="geometry" />
        </mxCell>
        <mxCell id="MBOUWFR5yHpP2ibVQKA5-97" value="(0,N)" style="text;html=1;strokeColor=none;fillColor=none;align=center;verticalAlign=middle;whiteSpace=wrap;rounded=0;" parent="1" vertex="1">
          <mxGeometry x="820" y="60" width="20" height="10" as="geometry" />
        </mxCell>
        <mxCell id="MBOUWFR5yHpP2ibVQKA5-98" value="(0,N)" style="text;html=1;strokeColor=none;fillColor=none;align=center;verticalAlign=middle;whiteSpace=wrap;rounded=0;" parent="1" vertex="1">
          <mxGeometry x="1820" y="275" width="20" height="10" as="geometry" />
        </mxCell>
        <mxCell id="MBOUWFR5yHpP2ibVQKA5-99" value="(0,N)" style="text;html=1;strokeColor=none;fillColor=none;align=center;verticalAlign=middle;whiteSpace=wrap;rounded=0;" parent="1" vertex="1">
          <mxGeometry x="2200" y="570" width="20" height="10" as="geometry" />
        </mxCell>
        <mxCell id="MBOUWFR5yHpP2ibVQKA5-100" value="(0,N)" style="text;html=1;strokeColor=none;fillColor=none;align=center;verticalAlign=middle;whiteSpace=wrap;rounded=0;" parent="1" vertex="1">
          <mxGeometry x="1810" y="1237.5" width="20" height="10" as="geometry" />
        </mxCell>
        <mxCell id="MBOUWFR5yHpP2ibVQKA5-101" value="(1,N)" style="text;html=1;strokeColor=none;fillColor=none;align=center;verticalAlign=middle;whiteSpace=wrap;rounded=0;" parent="1" vertex="1">
          <mxGeometry x="1800" y="1002.5" width="20" height="10" as="geometry" />
        </mxCell>
        <mxCell id="MBOUWFR5yHpP2ibVQKA5-102" value="(1,N)" style="text;html=1;strokeColor=none;fillColor=none;align=center;verticalAlign=middle;whiteSpace=wrap;rounded=0;" parent="1" vertex="1">
          <mxGeometry x="1800" y="932.5" width="20" height="10" as="geometry" />
        </mxCell>
        <mxCell id="MBOUWFR5yHpP2ibVQKA5-103" value="(1,N)" style="text;html=1;strokeColor=none;fillColor=none;align=center;verticalAlign=middle;whiteSpace=wrap;rounded=0;" parent="1" vertex="1">
          <mxGeometry x="1720" y="832.5" width="20" height="10" as="geometry" />
        </mxCell>
        <mxCell id="MBOUWFR5yHpP2ibVQKA5-104" value="(1,N)" style="text;html=1;strokeColor=none;fillColor=none;align=center;verticalAlign=middle;whiteSpace=wrap;rounded=0;" parent="1" vertex="1">
          <mxGeometry x="1740" y="640" width="20" height="10" as="geometry" />
        </mxCell>
        <mxCell id="MBOUWFR5yHpP2ibVQKA5-105" value="(1,N)" style="text;html=1;strokeColor=none;fillColor=none;align=center;verticalAlign=middle;whiteSpace=wrap;rounded=0;" parent="1" vertex="1">
          <mxGeometry x="1720" y="270" width="20" height="10" as="geometry" />
        </mxCell>
        <mxCell id="MBOUWFR5yHpP2ibVQKA5-106" value="(1,N)" style="text;html=1;strokeColor=none;fillColor=none;align=center;verticalAlign=middle;whiteSpace=wrap;rounded=0;" parent="1" vertex="1">
          <mxGeometry x="2710" y="890" width="20" height="10" as="geometry" />
        </mxCell>
        <mxCell id="MBOUWFR5yHpP2ibVQKA5-107" value="(1,N)" style="text;html=1;strokeColor=none;fillColor=none;align=center;verticalAlign=middle;whiteSpace=wrap;rounded=0;" parent="1" vertex="1">
          <mxGeometry x="2850" y="1227.5" width="20" height="10" as="geometry" />
        </mxCell>
        <mxCell id="MBOUWFR5yHpP2ibVQKA5-108" value="(1,1)" style="text;html=1;strokeColor=none;fillColor=none;align=center;verticalAlign=middle;whiteSpace=wrap;rounded=0;" parent="1" vertex="1">
          <mxGeometry x="2860" y="950" width="20" height="10" as="geometry" />
        </mxCell>
        <mxCell id="MBOUWFR5yHpP2ibVQKA5-110" value="(1,1)" style="text;html=1;strokeColor=none;fillColor=none;align=center;verticalAlign=middle;whiteSpace=wrap;rounded=0;" parent="1" vertex="1">
          <mxGeometry x="2930" y="860" width="20" as="geometry" />
        </mxCell>
        <mxCell id="MBOUWFR5yHpP2ibVQKA5-111" value="(1,1)" style="text;html=1;strokeColor=none;fillColor=none;align=center;verticalAlign=middle;whiteSpace=wrap;rounded=0;" parent="1" vertex="1">
          <mxGeometry x="2860" y="800" width="20" height="10" as="geometry" />
        </mxCell>
        <mxCell id="MBOUWFR5yHpP2ibVQKA5-112" value="(1,1)" style="text;html=1;strokeColor=none;fillColor=none;align=center;verticalAlign=middle;whiteSpace=wrap;rounded=0;" parent="1" vertex="1">
          <mxGeometry x="2570" y="345" width="20" height="10" as="geometry" />
        </mxCell>
        <mxCell id="MBOUWFR5yHpP2ibVQKA5-113" value="(1,1)" style="text;html=1;strokeColor=none;fillColor=none;align=center;verticalAlign=middle;whiteSpace=wrap;rounded=0;" parent="1" vertex="1">
          <mxGeometry x="1730" y="520" width="20" height="10" as="geometry" />
        </mxCell>
        <mxCell id="MBOUWFR5yHpP2ibVQKA5-114" value="(1,1)" style="text;html=1;strokeColor=none;fillColor=none;align=center;verticalAlign=middle;whiteSpace=wrap;rounded=0;" parent="1" vertex="1">
          <mxGeometry x="1600" y="340" width="20" height="10" as="geometry" />
        </mxCell>
        <mxCell id="MBOUWFR5yHpP2ibVQKA5-115" value="(0,N)" style="text;html=1;strokeColor=none;fillColor=none;align=center;verticalAlign=middle;whiteSpace=wrap;rounded=0;" parent="1" vertex="1">
          <mxGeometry x="1600" y="560" width="20" height="10" as="geometry" />
        </mxCell>
        <mxCell id="MBOUWFR5yHpP2ibVQKA5-116" value="(1,N)" style="text;html=1;strokeColor=none;fillColor=none;align=center;verticalAlign=middle;whiteSpace=wrap;rounded=0;" parent="1" vertex="1">
          <mxGeometry x="2150" y="800" width="20" height="10" as="geometry" />
        </mxCell>
        <mxCell id="MBOUWFR5yHpP2ibVQKA5-117" value="(1,1)" style="text;html=1;strokeColor=none;fillColor=none;align=center;verticalAlign=middle;whiteSpace=wrap;rounded=0;" parent="1" vertex="1">
          <mxGeometry x="2160" y="685" width="20" height="10" as="geometry" />
        </mxCell>
        <mxCell id="MBOUWFR5yHpP2ibVQKA5-118" value="(1,1)" style="text;html=1;strokeColor=none;fillColor=none;align=center;verticalAlign=middle;whiteSpace=wrap;rounded=0;" parent="1" vertex="1">
          <mxGeometry x="2690" y="305" width="20" height="10" as="geometry" />
        </mxCell>
        <mxCell id="MBOUWFR5yHpP2ibVQKA5-119" value="(1,N)" style="text;html=1;strokeColor=none;fillColor=none;align=center;verticalAlign=middle;whiteSpace=wrap;rounded=0;" parent="1" vertex="1">
          <mxGeometry x="2610" y="235" width="20" height="10" as="geometry" />
        </mxCell>
        <mxCell id="MBOUWFR5yHpP2ibVQKA5-120" value="(1,N)" style="text;html=1;strokeColor=none;fillColor=none;align=center;verticalAlign=middle;whiteSpace=wrap;rounded=0;" parent="1" vertex="1">
          <mxGeometry x="2020" y="275" width="20" height="10" as="geometry" />
        </mxCell>
        <mxCell id="MBOUWFR5yHpP2ibVQKA5-123" value="(1,1)" style="text;html=1;strokeColor=none;fillColor=none;align=center;verticalAlign=middle;whiteSpace=wrap;rounded=0;" parent="1" vertex="1">
          <mxGeometry x="1150" y="105" width="20" height="10" as="geometry" />
        </mxCell>
        <mxCell id="MBOUWFR5yHpP2ibVQKA5-124" value="(1,1)" style="text;html=1;strokeColor=none;fillColor=none;align=center;verticalAlign=middle;whiteSpace=wrap;rounded=0;" parent="1" vertex="1">
          <mxGeometry x="890" y="42.5" width="20" height="10" as="geometry" />
        </mxCell>
        <mxCell id="MBOUWFR5yHpP2ibVQKA5-125" value="(0,N)" style="text;html=1;strokeColor=none;fillColor=none;align=center;verticalAlign=middle;whiteSpace=wrap;rounded=0;" parent="1" vertex="1">
          <mxGeometry x="570" y="637.5" width="20" height="10" as="geometry" />
        </mxCell>
        <mxCell id="MBOUWFR5yHpP2ibVQKA5-127" value="(1,1)" style="text;html=1;strokeColor=none;fillColor=none;align=center;verticalAlign=middle;whiteSpace=wrap;rounded=0;" parent="1" vertex="1">
          <mxGeometry x="2300" y="500" width="20" height="10" as="geometry" />
        </mxCell>
        <mxCell id="MBOUWFR5yHpP2ibVQKA5-129" value="(1,N)" style="text;html=1;strokeColor=none;fillColor=none;align=center;verticalAlign=middle;whiteSpace=wrap;rounded=0;" parent="1" vertex="1">
          <mxGeometry x="2080" y="500" width="20" height="10" as="geometry" />
        </mxCell>
        <mxCell id="4f7llSYf8M2964etwW2G-1" value="" style="endArrow=none;html=1;rounded=0;startArrow=oval;startFill=1;" parent="1" edge="1">
          <mxGeometry width="50" height="50" relative="1" as="geometry">
            <mxPoint x="2140" y="460" as="sourcePoint" />
            <mxPoint x="2250" y="460" as="targetPoint" />
          </mxGeometry>
        </mxCell>
        <mxCell id="4f7llSYf8M2964etwW2G-2" value="" style="endArrow=oval;html=1;rounded=0;exitX=1;exitY=0;exitDx=0;exitDy=0;endFill=1;" parent="1" edge="1">
          <mxGeometry width="50" height="50" relative="1" as="geometry">
            <mxPoint x="1779.9952189984474" y="279.99574162340286" as="sourcePoint" />
            <mxPoint x="1780.15" y="246.25" as="targetPoint" />
          </mxGeometry>
        </mxCell>
        <mxCell id="4f7llSYf8M2964etwW2G-3" value="codice_sede" style="text;html=1;strokeColor=none;fillColor=none;align=center;verticalAlign=middle;whiteSpace=wrap;rounded=0;" parent="1" vertex="1">
          <mxGeometry x="1780" y="222.5" width="60" height="30" as="geometry" />
        </mxCell>
        <mxCell id="4f7llSYf8M2964etwW2G-4" value="(1,N)" style="text;html=1;strokeColor=none;fillColor=none;align=center;verticalAlign=middle;whiteSpace=wrap;rounded=0;" parent="1" vertex="1">
          <mxGeometry x="1330" y="330" width="20" height="10" as="geometry" />
        </mxCell>
        <mxCell id="4f7llSYf8M2964etwW2G-5" value="c.c." style="text;html=1;strokeColor=none;fillColor=none;align=center;verticalAlign=middle;whiteSpace=wrap;rounded=0;" parent="1" vertex="1">
          <mxGeometry x="650" y="60" width="60" height="30" as="geometry" />
        </mxCell>
        <mxCell id="4f7llSYf8M2964etwW2G-6" value="" style="endArrow=oval;html=1;rounded=0;exitX=0;exitY=0.25;exitDx=0;exitDy=0;endFill=0;" parent="1" edge="1">
          <mxGeometry width="50" height="50" relative="1" as="geometry">
            <mxPoint x="760" y="80.00000000000023" as="sourcePoint" />
            <mxPoint x="720" y="80.00000000000023" as="targetPoint" />
          </mxGeometry>
        </mxCell>
        <mxCell id="4f7llSYf8M2964etwW2G-20" style="edgeStyle=orthogonalEdgeStyle;rounded=0;orthogonalLoop=1;jettySize=auto;html=1;exitX=1;exitY=0.5;exitDx=0;exitDy=0;entryX=0;entryY=0.5;entryDx=0;entryDy=0;startArrow=none;startFill=0;endArrow=none;endFill=0;jumpStyle=arc;jumpSize=25;" parent="1" source="4f7llSYf8M2964etwW2G-7" target="MBOUWFR5yHpP2ibVQKA5-37" edge="1">
          <mxGeometry relative="1" as="geometry" />
        </mxCell>
        <mxCell id="4f7llSYf8M2964etwW2G-7" value="batch" style="whiteSpace=wrap;html=1;align=center;" parent="1" vertex="1">
          <mxGeometry x="1630" y="745" width="160" height="80" as="geometry" />
        </mxCell>
        <mxCell id="4f7llSYf8M2964etwW2G-11" style="edgeStyle=orthogonalEdgeStyle;rounded=0;orthogonalLoop=1;jettySize=auto;html=1;exitX=0.5;exitY=1;exitDx=0;exitDy=0;entryX=0.5;entryY=0;entryDx=0;entryDy=0;startArrow=none;startFill=0;endArrow=none;endFill=0;" parent="1" source="4f7llSYf8M2964etwW2G-9" target="jZSy8k9Uf3yvj8wu4J5K-54" edge="1">
          <mxGeometry relative="1" as="geometry" />
        </mxCell>
        <mxCell id="4f7llSYf8M2964etwW2G-12" style="edgeStyle=orthogonalEdgeStyle;rounded=0;orthogonalLoop=1;jettySize=auto;html=1;entryX=0.5;entryY=1;entryDx=0;entryDy=0;startArrow=none;startFill=0;endArrow=none;endFill=0;" parent="1" source="4f7llSYf8M2964etwW2G-9" target="4f7llSYf8M2964etwW2G-7" edge="1">
          <mxGeometry relative="1" as="geometry" />
        </mxCell>
        <mxCell id="4f7llSYf8M2964etwW2G-9" value="contenimento" style="shape=rhombus;perimeter=rhombusPerimeter;whiteSpace=wrap;html=1;align=center;" parent="1" vertex="1">
          <mxGeometry x="1650" y="852.5" width="120" height="60" as="geometry" />
        </mxCell>
        <mxCell id="4f7llSYf8M2964etwW2G-10" value="" style="endArrow=oval;html=1;rounded=0;exitX=0;exitY=0.25;exitDx=0;exitDy=0;endFill=1;" parent="1" edge="1">
          <mxGeometry width="50" height="50" relative="1" as="geometry">
            <mxPoint x="1630" y="942.5" as="sourcePoint" />
            <mxPoint x="1590" y="942.5" as="targetPoint" />
          </mxGeometry>
        </mxCell>
        <mxCell id="4f7llSYf8M2964etwW2G-14" value="(1,N)" style="text;html=1;strokeColor=none;fillColor=none;align=center;verticalAlign=middle;whiteSpace=wrap;rounded=0;" parent="1" vertex="1">
          <mxGeometry x="1720" y="915" width="20" height="10" as="geometry" />
        </mxCell>
        <mxCell id="4f7llSYf8M2964etwW2G-15" value="(1,1)" style="text;html=1;strokeColor=none;fillColor=none;align=center;verticalAlign=middle;whiteSpace=wrap;rounded=0;" parent="1" vertex="1">
          <mxGeometry x="1730" y="730" width="20" height="10" as="geometry" />
        </mxCell>
        <mxCell id="4f7llSYf8M2964etwW2G-16" value="codice batch" style="text;html=1;strokeColor=none;fillColor=none;align=center;verticalAlign=middle;whiteSpace=wrap;rounded=0;" parent="1" vertex="1">
          <mxGeometry x="1500" y="745" width="90" height="20" as="geometry" />
        </mxCell>
        <mxCell id="4f7llSYf8M2964etwW2G-17" value="" style="endArrow=oval;html=1;rounded=0;exitX=0;exitY=0.25;exitDx=0;exitDy=0;endFill=1;" parent="1" edge="1">
          <mxGeometry width="50" height="50" relative="1" as="geometry">
            <mxPoint x="1630" y="762.5" as="sourcePoint" />
            <mxPoint x="1590" y="762.5" as="targetPoint" />
          </mxGeometry>
        </mxCell>
        <mxCell id="4f7llSYf8M2964etwW2G-30" style="edgeStyle=orthogonalEdgeStyle;rounded=0;jumpStyle=arc;jumpSize=25;orthogonalLoop=1;jettySize=auto;html=1;exitX=1;exitY=0.5;exitDx=0;exitDy=0;entryX=0.25;entryY=0;entryDx=0;entryDy=0;startArrow=none;startFill=0;endArrow=none;endFill=0;" parent="1" source="4f7llSYf8M2964etwW2G-21" target="MBOUWFR5yHpP2ibVQKA5-22" edge="1">
          <mxGeometry relative="1" as="geometry" />
        </mxCell>
        <mxCell id="4f7llSYf8M2964etwW2G-21" value="indirizzo" style="ellipse;whiteSpace=wrap;html=1;align=center;" parent="1" vertex="1">
          <mxGeometry x="2700" y="1202.5" width="50" height="25" as="geometry" />
        </mxCell>
        <mxCell id="4f7llSYf8M2964etwW2G-22" value="" style="endArrow=oval;html=1;rounded=0;exitX=1;exitY=0;exitDx=0;exitDy=0;endFill=0;" parent="1" source="4f7llSYf8M2964etwW2G-21" edge="1">
          <mxGeometry width="50" height="50" relative="1" as="geometry">
            <mxPoint x="2690" y="1132.5000000000002" as="sourcePoint" />
            <mxPoint x="2743" y="1172.5" as="targetPoint" />
          </mxGeometry>
        </mxCell>
        <mxCell id="4f7llSYf8M2964etwW2G-23" value="" style="endArrow=oval;html=1;rounded=0;exitX=0.5;exitY=0;exitDx=0;exitDy=0;endFill=0;" parent="1" source="4f7llSYf8M2964etwW2G-21" edge="1">
          <mxGeometry width="50" height="50" relative="1" as="geometry">
            <mxPoint x="2690" y="1152.5" as="sourcePoint" />
            <mxPoint x="2725" y="1152.5" as="targetPoint" />
          </mxGeometry>
        </mxCell>
        <mxCell id="4f7llSYf8M2964etwW2G-24" value="" style="endArrow=oval;html=1;rounded=0;exitX=0;exitY=0;exitDx=0;exitDy=0;endFill=0;" parent="1" source="4f7llSYf8M2964etwW2G-21" edge="1">
          <mxGeometry width="50" height="50" relative="1" as="geometry">
            <mxPoint x="2690" y="1172.5" as="sourcePoint" />
            <mxPoint x="2707" y="1172.5" as="targetPoint" />
          </mxGeometry>
        </mxCell>
        <mxCell id="4f7llSYf8M2964etwW2G-25" value="citta&#39;" style="text;html=1;strokeColor=none;fillColor=none;align=center;verticalAlign=middle;whiteSpace=wrap;rounded=0;" parent="1" vertex="1">
          <mxGeometry x="2660" y="1152.5" width="60" height="30" as="geometry" />
        </mxCell>
        <mxCell id="4f7llSYf8M2964etwW2G-26" value="C.A.P." style="text;html=1;strokeColor=none;fillColor=none;align=center;verticalAlign=middle;whiteSpace=wrap;rounded=0;" parent="1" vertex="1">
          <mxGeometry x="2670" y="1065" width="80" height="30" as="geometry" />
        </mxCell>
        <mxCell id="4f7llSYf8M2964etwW2G-27" value="via" style="text;html=1;strokeColor=none;fillColor=none;align=center;verticalAlign=middle;whiteSpace=wrap;rounded=0;" parent="1" vertex="1">
          <mxGeometry x="2640" y="1115" width="60" height="30" as="geometry" />
        </mxCell>
        <mxCell id="4f7llSYf8M2964etwW2G-28" value="" style="endArrow=oval;html=1;rounded=0;exitX=0;exitY=0.25;exitDx=0;exitDy=0;endFill=0;" parent="1" edge="1">
          <mxGeometry width="50" height="50" relative="1" as="geometry">
            <mxPoint x="2700" y="1214.5000000000002" as="sourcePoint" />
            <mxPoint x="2690" y="1192.5" as="targetPoint" />
          </mxGeometry>
        </mxCell>
        <mxCell id="4f7llSYf8M2964etwW2G-31" value="stato" style="text;html=1;strokeColor=none;fillColor=none;align=center;verticalAlign=middle;whiteSpace=wrap;rounded=0;" parent="1" vertex="1">
          <mxGeometry x="2720" y="1142.5" width="60" height="30" as="geometry" />
        </mxCell>
        <mxCell id="4f7llSYf8M2964etwW2G-33" value="(1,1)" style="text;html=1;strokeColor=none;fillColor=none;align=center;verticalAlign=middle;whiteSpace=wrap;rounded=0;" parent="1" vertex="1">
          <mxGeometry x="1810" y="762.5" width="20" height="10" as="geometry" />
        </mxCell>
        <mxCell id="4f7llSYf8M2964etwW2G-36" value="" style="endArrow=none;html=1;rounded=0;jumpStyle=none;jumpSize=25;startArrow=oval;startFill=1;" parent="1" edge="1">
          <mxGeometry width="50" height="50" relative="1" as="geometry">
            <mxPoint x="2510" y="340" as="sourcePoint" />
            <mxPoint x="2510" y="250" as="targetPoint" />
          </mxGeometry>
        </mxCell>
        <mxCell id="4f7llSYf8M2964etwW2G-40" style="edgeStyle=orthogonalEdgeStyle;rounded=0;jumpStyle=none;jumpSize=25;orthogonalLoop=1;jettySize=auto;html=1;exitX=0.5;exitY=1;exitDx=0;exitDy=0;entryX=0.5;entryY=0;entryDx=0;entryDy=0;startArrow=none;startFill=0;endArrow=none;endFill=0;" parent="1" source="4f7llSYf8M2964etwW2G-38" target="jZSy8k9Uf3yvj8wu4J5K-13" edge="1">
          <mxGeometry relative="1" as="geometry" />
        </mxCell>
        <mxCell id="4f7llSYf8M2964etwW2G-38" value="ricezione" style="shape=rhombus;perimeter=rhombusPerimeter;whiteSpace=wrap;html=1;align=center;" parent="1" vertex="1">
          <mxGeometry x="2130" y="330" width="120" height="60" as="geometry" />
        </mxCell>
        <mxCell id="4f7llSYf8M2964etwW2G-42" value="" style="endArrow=oval;html=1;rounded=0;exitX=0;exitY=0;exitDx=0;exitDy=0;endFill=0;" parent="1" edge="1">
          <mxGeometry width="50" height="50" relative="1" as="geometry">
            <mxPoint x="2169.58" y="480" as="sourcePoint" />
            <mxPoint x="2169.58" y="438" as="targetPoint" />
          </mxGeometry>
        </mxCell>
        <mxCell id="4f7llSYf8M2964etwW2G-43" value="" style="endArrow=oval;html=1;rounded=0;exitX=0;exitY=0;exitDx=0;exitDy=0;endFill=0;" parent="1" edge="1">
          <mxGeometry width="50" height="50" relative="1" as="geometry">
            <mxPoint x="2209.58" y="482" as="sourcePoint" />
            <mxPoint x="2209.58" y="440" as="targetPoint" />
          </mxGeometry>
        </mxCell>
        <mxCell id="4f7llSYf8M2964etwW2G-46" style="edgeStyle=orthogonalEdgeStyle;rounded=0;jumpStyle=none;jumpSize=25;orthogonalLoop=1;jettySize=auto;html=1;entryX=0.5;entryY=1;entryDx=0;entryDy=0;startArrow=none;startFill=0;endArrow=none;endFill=0;" parent="1" source="4f7llSYf8M2964etwW2G-45" target="jZSy8k9Uf3yvj8wu4J5K-54" edge="1">
          <mxGeometry relative="1" as="geometry" />
        </mxCell>
        <mxCell id="4f7llSYf8M2964etwW2G-47" style="edgeStyle=orthogonalEdgeStyle;rounded=0;jumpStyle=none;jumpSize=25;orthogonalLoop=1;jettySize=auto;html=1;exitX=0.5;exitY=1;exitDx=0;exitDy=0;entryX=0.5;entryY=0;entryDx=0;entryDy=0;startArrow=none;startFill=0;endArrow=none;endFill=0;" parent="1" source="4f7llSYf8M2964etwW2G-45" target="jZSy8k9Uf3yvj8wu4J5K-58" edge="1">
          <mxGeometry relative="1" as="geometry" />
        </mxCell>
        <mxCell id="4f7llSYf8M2964etwW2G-45" value="P-d" style="shape=rhombus;perimeter=rhombusPerimeter;whiteSpace=wrap;html=1;align=center;" parent="1" vertex="1">
          <mxGeometry x="1650" y="1065" width="120" height="60" as="geometry" />
        </mxCell>
        <mxCell id="4f7llSYf8M2964etwW2G-48" value="" style="endArrow=oval;html=1;rounded=0;exitX=0;exitY=0.25;exitDx=0;exitDy=0;endFill=1;" parent="1" edge="1">
          <mxGeometry width="50" height="50" relative="1" as="geometry">
            <mxPoint x="1730" y="1160" as="sourcePoint" />
            <mxPoint x="1690" y="1160" as="targetPoint" />
          </mxGeometry>
        </mxCell>
        <mxCell id="4f7llSYf8M2964etwW2G-60" style="edgeStyle=orthogonalEdgeStyle;rounded=0;jumpStyle=none;jumpSize=25;orthogonalLoop=1;jettySize=auto;html=1;exitX=0.5;exitY=1;exitDx=0;exitDy=0;entryX=0.5;entryY=0;entryDx=0;entryDy=0;startArrow=none;startFill=0;endArrow=none;endFill=0;" parent="1" source="4f7llSYf8M2964etwW2G-49" target="jZSy8k9Uf3yvj8wu4J5K-84" edge="1">
          <mxGeometry relative="1" as="geometry" />
        </mxCell>
        <mxCell id="4f7llSYf8M2964etwW2G-74" style="edgeStyle=orthogonalEdgeStyle;rounded=0;jumpStyle=none;jumpSize=25;orthogonalLoop=1;jettySize=auto;html=1;exitX=0.5;exitY=0;exitDx=0;exitDy=0;entryX=0.059;entryY=0.991;entryDx=0;entryDy=0;entryPerimeter=0;startArrow=none;startFill=0;endArrow=none;endFill=0;" parent="1" source="4f7llSYf8M2964etwW2G-49" target="jZSy8k9Uf3yvj8wu4J5K-83" edge="1">
          <mxGeometry relative="1" as="geometry">
            <Array as="points">
              <mxPoint x="560" y="200" />
              <mxPoint x="769" y="200" />
            </Array>
          </mxGeometry>
        </mxCell>
        <mxCell id="4f7llSYf8M2964etwW2G-49" value="D-F" style="shape=rhombus;perimeter=rhombusPerimeter;whiteSpace=wrap;html=1;align=center;" parent="1" vertex="1">
          <mxGeometry x="500" y="290" width="120" height="60" as="geometry" />
        </mxCell>
        <mxCell id="4f7llSYf8M2964etwW2G-59" style="edgeStyle=orthogonalEdgeStyle;rounded=0;jumpStyle=none;jumpSize=25;orthogonalLoop=1;jettySize=auto;html=1;exitX=0.5;exitY=1;exitDx=0;exitDy=0;entryX=0.5;entryY=0;entryDx=0;entryDy=0;startArrow=none;startFill=0;endArrow=none;endFill=0;" parent="1" source="4f7llSYf8M2964etwW2G-50" target="jZSy8k9Uf3yvj8wu4J5K-171" edge="1">
          <mxGeometry relative="1" as="geometry" />
        </mxCell>
        <mxCell id="4f7llSYf8M2964etwW2G-50" value="D-M" style="shape=rhombus;perimeter=rhombusPerimeter;whiteSpace=wrap;html=1;align=center;" parent="1" vertex="1">
          <mxGeometry x="780" y="215" width="120" height="60" as="geometry" />
        </mxCell>
        <mxCell id="4f7llSYf8M2964etwW2G-55" style="edgeStyle=orthogonalEdgeStyle;rounded=0;jumpStyle=none;jumpSize=25;orthogonalLoop=1;jettySize=auto;html=1;entryX=0;entryY=0.5;entryDx=0;entryDy=0;startArrow=none;startFill=0;endArrow=none;endFill=0;" parent="1" source="4f7llSYf8M2964etwW2G-51" target="jZSy8k9Uf3yvj8wu4J5K-85" edge="1">
          <mxGeometry relative="1" as="geometry" />
        </mxCell>
        <mxCell id="4f7llSYf8M2964etwW2G-51" value="D-I" style="shape=rhombus;perimeter=rhombusPerimeter;whiteSpace=wrap;html=1;align=center;" parent="1" vertex="1">
          <mxGeometry x="970" y="290" width="120" height="60" as="geometry" />
        </mxCell>
        <mxCell id="4f7llSYf8M2964etwW2G-56" value="dirigente" style="text;html=1;strokeColor=none;fillColor=none;align=center;verticalAlign=middle;whiteSpace=wrap;rounded=0;" parent="1" vertex="1">
          <mxGeometry x="1104.91" y="215" width="90" height="30" as="geometry" />
        </mxCell>
        <mxCell id="4f7llSYf8M2964etwW2G-57" value="" style="endArrow=oval;html=1;rounded=0;exitX=0;exitY=0;exitDx=0;exitDy=0;endFill=0;" parent="1" edge="1">
          <mxGeometry width="50" height="50" relative="1" as="geometry">
            <mxPoint x="1194.49" y="280" as="sourcePoint" />
            <mxPoint x="1194.49" y="238" as="targetPoint" />
          </mxGeometry>
        </mxCell>
        <mxCell id="4f7llSYf8M2964etwW2G-58" value="" style="endArrow=oval;html=1;rounded=0;exitX=1;exitY=0;exitDx=0;exitDy=0;endFill=1;" parent="1" edge="1">
          <mxGeometry width="50" height="50" relative="1" as="geometry">
            <mxPoint x="1140" y="336.87" as="sourcePoint" />
            <mxPoint x="1140.1547810015527" y="303.12425837659737" as="targetPoint" />
          </mxGeometry>
        </mxCell>
        <mxCell id="4f7llSYf8M2964etwW2G-61" value="" style="endArrow=oval;html=1;rounded=0;exitX=0;exitY=0.25;exitDx=0;exitDy=0;endFill=1;" parent="1" edge="1">
          <mxGeometry width="50" height="50" relative="1" as="geometry">
            <mxPoint x="540" y="520" as="sourcePoint" />
            <mxPoint x="580" y="520" as="targetPoint" />
          </mxGeometry>
        </mxCell>
        <mxCell id="4f7llSYf8M2964etwW2G-62" value="(1,1)" style="text;html=1;strokeColor=none;fillColor=none;align=center;verticalAlign=middle;whiteSpace=wrap;rounded=0;" parent="1" vertex="1">
          <mxGeometry x="1104.91" y="330" width="20" height="10" as="geometry" />
        </mxCell>
        <mxCell id="4f7llSYf8M2964etwW2G-63" value="(1,1)" style="text;html=1;strokeColor=none;fillColor=none;align=center;verticalAlign=middle;whiteSpace=wrap;rounded=0;" parent="1" vertex="1">
          <mxGeometry x="800" y="295" width="20" height="10" as="geometry" />
        </mxCell>
        <mxCell id="4f7llSYf8M2964etwW2G-65" value="" style="endArrow=oval;html=1;rounded=0;exitX=0;exitY=0.25;exitDx=0;exitDy=0;endFill=1;" parent="1" edge="1">
          <mxGeometry width="50" height="50" relative="1" as="geometry">
            <mxPoint x="820" y="289.26" as="sourcePoint" />
            <mxPoint x="860" y="289.26" as="targetPoint" />
          </mxGeometry>
        </mxCell>
        <mxCell id="4f7llSYf8M2964etwW2G-71" value="(0,N)" style="text;html=1;strokeColor=none;fillColor=none;align=center;verticalAlign=middle;whiteSpace=wrap;rounded=0;" parent="1" vertex="1">
          <mxGeometry x="1000" y="270" width="20" height="10" as="geometry" />
        </mxCell>
        <mxCell id="4f7llSYf8M2964etwW2G-72" value="(0,N)" style="text;html=1;strokeColor=none;fillColor=none;align=center;verticalAlign=middle;whiteSpace=wrap;rounded=0;" parent="1" vertex="1">
          <mxGeometry x="810" y="202.5" width="20" height="10" as="geometry" />
        </mxCell>
        <mxCell id="4f7llSYf8M2964etwW2G-73" value="(0,N)" style="text;html=1;strokeColor=none;fillColor=none;align=center;verticalAlign=middle;whiteSpace=wrap;rounded=0;" parent="1" vertex="1">
          <mxGeometry x="570" y="275" width="20" height="10" as="geometry" />
        </mxCell>
      </root>
    </mxGraphModel>
  </diagram>
</mxfile>
